<?xml version="1.0" encoding="utf-8"?>
<!-- Generator: Adobe Illustrator 16.0.0, SVG Export Plug-In . SVG Version: 6.00 Build 0)  -->
<!DOCTYPE svg PUBLIC "-//W3C//DTD SVG 1.1//EN" "http://www.w3.org/Graphics/SVG/1.1/DTD/svg11.dtd">
<svg version="1.1" id="Ebene_1" xmlns="http://www.w3.org/2000/svg" xmlns:xlink="http://www.w3.org/1999/xlink" x="0px" y="0px"
	 width="110px" height="200px" viewBox="0 0 110 200" style="enable-background:new 0 0 110 200;" xml:space="preserve">
<style type="text/css">
<![CDATA[
	.st0{fill-rule:evenodd;clip-rule:evenodd;fill:#D58B65;}
	.st1{fill-rule:evenodd;clip-rule:evenodd;fill:#D5B498;}
	.st2{fill-rule:evenodd;clip-rule:evenodd;fill:#D68861;}
	.st3{fill-rule:evenodd;clip-rule:evenodd;fill:#D78B61;}
	.st4{fill-rule:evenodd;clip-rule:evenodd;fill:#D7D1C8;}
	.st5{fill-rule:evenodd;clip-rule:evenodd;fill:#757C84;}
	.st6{fill-rule:evenodd;clip-rule:evenodd;fill:#A53749;}
	.st7{fill-rule:evenodd;clip-rule:evenodd;fill:#AA3449;}
	.st8{fill-rule:evenodd;clip-rule:evenodd;fill:#AA3950;}
	.st9{fill-rule:evenodd;clip-rule:evenodd;fill:#AC334C;}
	.st10{fill-rule:evenodd;clip-rule:evenodd;fill:#7D8A96;}
	.st11{fill-rule:evenodd;clip-rule:evenodd;fill:#7E8B98;}
	.st12{fill-rule:evenodd;clip-rule:evenodd;fill:#7F8B98;}
	.st13{fill-rule:evenodd;clip-rule:evenodd;fill:#110E00;}
	.st14{fill-rule:evenodd;clip-rule:evenodd;fill:#E2C049;}
	.st15{fill-rule:evenodd;clip-rule:evenodd;fill:#E3BC00;}
	.st16{fill-rule:evenodd;clip-rule:evenodd;fill:#E4B791;}
	.st17{fill-rule:evenodd;clip-rule:evenodd;fill:#E7B895;}
	.st18{fill-rule:evenodd;clip-rule:evenodd;fill:#817E80;}
	.st19{fill-rule:evenodd;clip-rule:evenodd;fill:#EA9E6C;}
	.st20{fill-rule:evenodd;clip-rule:evenodd;fill:#ECAA7D;}
	.st21{fill-rule:evenodd;clip-rule:evenodd;fill:#ECAB7A;}
	.st22{fill-rule:evenodd;clip-rule:evenodd;fill:#EDAB7B;}
	.st23{fill-rule:evenodd;clip-rule:evenodd;fill:#505150;}
	.st24{fill-rule:evenodd;clip-rule:evenodd;fill:#585C5A;}
	.st25{fill-rule:evenodd;clip-rule:evenodd;fill:#BF3B4F;}
	.st26{fill-rule:evenodd;clip-rule:evenodd;fill:#222223;}
	.st27{fill-rule:evenodd;clip-rule:evenodd;fill:#232423;}
	.st28{fill-rule:evenodd;clip-rule:evenodd;fill:#252525;}
	.st29{fill-rule:evenodd;clip-rule:evenodd;fill:#F5F2EC;}
	.st30{fill-rule:evenodd;clip-rule:evenodd;fill:#F7F3EE;}
	.st31{fill-rule:evenodd;clip-rule:evenodd;fill:#F9D500;}
	.st32{fill-rule:evenodd;clip-rule:evenodd;fill:#2A241E;}
	.st33{fill-rule:evenodd;clip-rule:evenodd;fill:#2E2620;}
	.st34{fill-rule:evenodd;clip-rule:evenodd;fill:#FCF8F4;}
	.st35{fill-rule:evenodd;clip-rule:evenodd;fill:#9F6E87;}
	.st36{fill-rule:evenodd;clip-rule:evenodd;fill:#CF946A;}
	.st37{fill-rule:evenodd;clip-rule:evenodd;fill:#6E7D8A;}
	.st38{fill-rule:evenodd;clip-rule:evenodd;fill:#6F7C8A;}
	.st39{fill-rule:evenodd;clip-rule:evenodd;fill:#6F7D89;}
	.st40{fill-rule:evenodd;clip-rule:evenodd;fill:#D14059;}
	.st41{fill-rule:evenodd;clip-rule:evenodd;fill:#D2415A;}
	.st42{fill-rule:evenodd;clip-rule:evenodd;fill:#D2425B;}
	.st43{fill-rule:evenodd;clip-rule:evenodd;fill:#D2875E;}
	.st44{fill-rule:evenodd;clip-rule:evenodd;fill:#D28A6A;}
	.st45{fill-rule:evenodd;clip-rule:evenodd;fill:#D3415A;}
	.st46{fill-rule:evenodd;clip-rule:evenodd;fill:#050400;}
]]>
</style>
<g id="four">
	<path class="st22" d="M71.5,64.5c0.2,0.7,0.4,1.4,0.6,2.1c-1,10.8-6.4,16-17.4,16.9c-7.5,0.6-11.2,0-17-2.5c1,1.3,2.4,2.1,3.3,3.2
		c0.6,0.9,1.7,1.7,1.2,3c-2.1,1.1-3.2-0.7-4.6-1.7c-1.1-0.8-1.7-2-2.5-3.1c-0.4-0.6-0.7-1.1-0.5-1.8c0.6-2.4-0.4-4.8-0.6-7.1
		c-0.3-4,0.4-7.9,1.4-11.7c0.4-3.7,2.9-7,2.2-10.9c-0.1-0.4-0.8,0.1-0.3-0.1c0.2-0.1,0.3,0,0.3,0.1c0.1,1,0.6,2.1-0.4,3
		c-1-0.4-1.3-1.3-1.3-2.1c0.2-5.1-0.6-10.2,0.7-15.2c1.6-6.2,5.7-8.3,11.4-5.6c3.5,1.6,6.9,0.8,10.4,0.5c1.1,0,2.2,0.2,3.3-0.4
		c3.8-1.9,7-1.1,9.8,2c1.9,4,1,8.2,0.6,12.4c-0.3,4.1-1.5,8.1-2,12.1C71,59.8,70.9,62.2,71.5,64.5z"/>
	<path class="st12" d="M9.2,130.2c-0.6-1-1.5-1.6-2.5-2.1c-0.8-0.4-1.6-1.1-1.5-2.1c0.9-4.7-0.9-9.4,0.1-14.2c1-4.8,3.1-9,6.3-12.7
		c1-1.2,1.7-2.4,1.8-4.1c0.1-2.8,1.4-5.2,3.7-6.8c1.1-0.8,1.5-1.8,2-2.9c1.6,1.7,1.5,4.1,3.2,6c4,4.3,9.3,5.7,14.7,7.1
		c1.4,0.4,2.9,0.6,3.2,2.3c1.3,4.4,1.8,8.8,1.7,13.4c-1.8,1.3-4,0.3-5.9,0.6c-1,0.1-2.1-0.3-3,0.1c-4.4,1.8-7.6,0-10.5-3.8
		c-0.8,3.3-1.4,6.2-3,8.7c-0.7,1.1,0,1.8,0.8,2.6c1.3,1.3,3.1,1.7,4.8,2.6c-1.3-1.3-3.1-2.1-3.2-3.9c-0.1-1.8,0.9-3.4,2.2-4.7
		c0.7-0.8,1.7-1,2.7-0.6c1.1,0.5,0.7,1.5,0.4,2.3c-1.9,2.3-1.7,4.1,1.1,5.6c1.4,0.7,2.4,1.9,2.4,3.6c-0.8,3.4-0.9,7-3.7,9.6
		c-3.5,1.3-6.8,0-10.1-0.8c-1.5-0.8-3-1.7-4.6-2.4C10.7,133,9.7,131.9,9.2,130.2z"/>
	<path class="st11" d="M93.2,89.2c1.4,1.9,2.5,4,2.5,6.4c0,1.5,0.8,2.4,1.7,3.5c5.6,6.7,7.7,14.3,6.1,22.9c-0.4,2.3,1.2,4.8-1,6.8
		c-2,2.3-4.9,3.5-6.9,5.7c-4.7,1.5-9.2,3.5-14.3,2.5c-0.8-3.5-2.7-6.6-3.2-10.1c1.1-3,3.7-4.5,6.1-6.1c-1.6-0.3-2.2-1.5-2.5-2.9
		c0-1.1-0.1-2.4,1.2-2.8c1.3-0.3,2,0.7,2.7,1.6c2.8,3.6,2.6,4.7-1.2,7.7c0.1,0.1,0.3,0,0.5-0.1c5-2.4,5-2.4,3.4-7.5
		c-0.4-1.2-0.6-2.4-0.9-3.6c-0.3-1.2-0.3-2.4-0.7-3.8c-1.3,0.2-1.9,1.3-2.8,2c-3.6,2.9-7.5,4.3-12.1,3c-2.4-0.7-5.5,0.5-7.3-2.2
		c-0.6-3.3-0.9-6.6,1.3-9.6c0.9-0.9,2.1-0.9,3.3-0.9c1.2,0,2.1-0.4,2.6-1.4c1-0.6,2.1-0.8,3.1-1.3c5-1.4,9.8-3,14.1-6.1
		C90.4,91.9,91,89.6,93.2,89.2z"/>
	<path class="st7" d="M81.1,136.8c5-0.1,9.8-1.5,14.5-2.8c0.6,0.4,0.9,1.1,0.9,1.7c0.2,7.3,1.1,14.6-0.3,21.9
		c-0.4,2.3-1.4,3.7-4.1,2.8c-6.1-0.2-12.1,0.8-18.1,1.5c-6.2,0.3-6.2,0.3-6.2-5.7c0-3.4,0.3-6.9-0.9-10.3c-0.4-1.9-0.4-3.9-0.1-5.8
		c0.4-1.2,0.4-2.5,1.6-3.3c0.3,0,0.8-0.1,0.9,0.2c2.9,4.3,6.3,2.4,9.6,0.7C79.6,137.2,80.3,136.8,81.1,136.8z"/>
	<path class="st27" d="M58.7,32.3c-4.4,0.9-8.7,1.2-12.9-1.3c-2.3-1.4-4.8-0.6-6.5,1.7c-1.1,1.5-1.7,3.1-2,4.9
		c-0.9,5.4-0.9,10.8,0,16.3c0.6,1.2,0.8,2.6-0.5,3.1c-1.6,0.7-2.3-0.7-2.8-1.9c-0.4-1.7-0.3-3.4-0.2-5.1c0.1-1.5,0.7-2.9,1.4-4.2
		c-0.4-3.2-0.8-6.4-1.2-9.6c-0.6-4.7,1.1-8.4,5.5-10.3c1.7-0.8,1.8-1.8,1.7-3.4c-0.4-6.7,5.7-11.9,12-10.3c0.7,0.2,1.5,0.5,2.1,0.9
		c1.2,0.8,2.4,1.7,2.4,3.4c0,0.9-0.7,1.6-1.7,1.8c-1.7,0.3-3.4,0.5-4.4-1.7c1-0.1,1.9-0.1,3.4-0.2c-1.4-1.9-2.7-2.8-4.6-1.9
		c-1.4,0.6-2.4,1.7-2.1,3.4c0.5,2.2,2.3,2.4,3.9,2.1c8.5-1.7,15,1.2,20,8.1c0.8,1.1,2.4,1.6,3.4,2.6c2.1,2.1,2.2,4.8,1.8,7.5
		c-0.5,3.3-1.8,6.2-3.5,9c-0.3,1.9-1.4,3.7-1.1,5.7c0,1.4,0.1,2.9-0.4,4.2c-0.8,1.1-1.5,2.2-3.2,1.4c-0.4-3.3,0.7-6.3,1.2-9.5
		c0.7-5.4,1.9-10.8,0.3-16.2c-2.3-2.8-4.6-3.3-8.8-1.4C61,31.8,59.8,31.8,58.7,32.3z"/>
	<path class="st7" d="M16.6,135.4c2.5,0.4,5,0.8,7.5,1.2c1,0.2,2,0.5,2.8-0.4c2.6,0.5,4.6,2.4,7.1,3.2c1.6,0.5,2.9,0.6,4.2-0.7
		c0.8-0.1,1.3,0.3,1.7,0.9c0.9,2-0.1,4.1,0.4,6.1c0,2-0.3,4-0.3,5.9c0,1.9-1,3.1-2.9,3.3c-6.6,0.9-12.4,3.5-17.7,7.5
		c-1.8,0-2.3-1.4-2.5-2.7c-0.9-7.1-2.1-14.1-1.3-21.2C15.6,137.3,15.7,136.2,16.6,135.4z"/>
	<path class="st45" d="M92.2,160.4c1.8,0.1,2.6-0.5,3-2.5c1.6-8,0.1-15.9,0.5-23.9c1.6-2.5,4.1-4,6.8-5.1c3,11.7,3.7,23.4,0.6,35.2
		c-1.4,5.4-6.3,9.3-11.7,9.6c1-3.3,1.9-6.6,2.9-9.8C94.8,161.9,94.4,160.7,92.2,160.4z"/>
	<path class="st42" d="M16.6,135.4c-1.1,7.5,0.2,14.9,0.7,22.3c0.1,1.7,0.3,3.5,1.9,4.7c-1.5,2.5,0.1,4.7,0.8,7
		c0.4,1.6,1.1,3.1,1.6,4.7c-4.7,0.2-10.1-3.5-11.6-8.2C6.2,154,7,142.1,9.2,130.2C11,132.9,14.6,133,16.6,135.4z"/>
	<path class="st40" d="M39.6,100.6c-1.9-2.1-4.8-1.4-7.2-2.4c-3.6-1.5-7.1-2.7-9.9-5.5c-2.1-2.1-3.8-4.2-3.4-7.4
		c0.9-1.1,1.6-1.8,3.5-1.5c2.3,0.3,4.3-2,6.2-3.4c3.3-2.6,3.1-2.9,5.9,0.2c0.2,0.4,0.5,0.8,0.7,1.2c0.9,2.7,3.3,4.3,4.6,6.7
		c0.5,1,1.4,1.7,1.1,2.9c-0.8,1.7-0.5,3.4-0.3,5.2C40.9,98,41.6,99.8,39.6,100.6z"/>
	<path class="st41" d="M93.2,89.2c-4.3,6.7-11.1,9-18.4,10.5c-2.1-2,0.1-2.6,1.2-3.3c1.6-1,3.6-1.4,4.6-3.5c-2,0-4.1,1.2-5.2-1.8
		c-0.6-1.5-2,0.1-2.3,0.9c-1,2.2-3.3,2.9-5,4.3c-0.7,0.6-1.6,1-2.3,0c-0.5-1.1-0.5-2.3-0.1-3.4c0.8-1.4,2-2.4,3.1-3.4
		c2.8-2.5,4.9-5.4,6.4-8.8c0.1-0.1,0.2-0.2,0.4-0.3c0.9-0.1,1.2-0.8,1.7-1.5c1.3-2,3.5-1.3,4.1-0.1c1.5,3,4.9,2.9,6.7,5.1
		c0.2,0.3,0.8,0.5,1.2,0.5C93.5,84.4,94.2,85.3,93.2,89.2z"/>
	<path class="st37" d="M67.5,145.3c2.3,3.4,1.3,7.3,1.4,11c0.1,5.2,0,5.2,5.2,5.5c-0.7,0.1-1.3,0.4-2,0.3c-2.6-0.5-3.1,0.7-2.7,2.9
		c-2.3,1.8-5,2.3-7.8,2.7c0.1-3.8-1.6-6.7-4.3-9.2c-1-2.9-3.7-5.1-3.4-8.6C58.1,147.5,62.4,145.2,67.5,145.3z"/>
	<path class="st28" d="M61.6,167.7c2.4-1.5,5.1-2.1,7.8-2.7c1.7,4,1.7,8.3,2.3,12.5c0.2,1.5,0.1,3.3,0.7,4.6
		c0.9,1.7,1.8,3.5,4.2,3.8c1.1,0.2,2.2,1,3.2,2.2c-4.6,0-9.1,0-13.7,0c-0.6,0-1.3-0.3-1.1-0.9c1.7-4.5-1.7-8-2.2-12.1
		C62.6,172.6,60.9,170.4,61.6,167.7z"/>
	<path class="st28" d="M46.7,167c1.7,2,0.7,4.3,0.5,6.4c-0.4,4.6-3.5,8.8-1.5,13.7c0.5,1.2-1.2,0.9-1.9,1c-4.2,0.1-8.4,0-13.2,0
		c2.2-2.6,6.2-2,7.4-5.2c1-4.8,0.2-9.6,0.5-14.4c0.1-1.3-0.4-2.7,0.9-3.6l0,0C42.2,164,44.5,165.3,46.7,167z"/>
	<path class="st38" d="M46.7,167c-2.5-0.7-4.9-1.4-7.4-2.1c0.1-2.6,0.8-5.2,0.1-7.9c-0.4-1.6-1-2.3-2.6-2.2c1.8-0.6,2.3-2.2,2.2-3.6
		c-0.2-2,0.4-3.9,0.3-5.9c4.7,0.1,8.6,2.2,12.5,4.6c0.8,2.3-0.7,4.2-1.2,6.2c-2.6,1.5-1.9,4.5-2.9,6.7C47.1,164.1,47,165.6,46.7,167
		z"/>
	<path class="st3" d="M40.7,84.6c-2.1-1.4-4.1-3-5.6-6.1c4.5,3.1,9.1,4.3,13.6,4.5c8,0.2,15.8-0.9,21-8.3c1.7-2.5,1.3-5.5,2.4-8.1
		c0.2,3.7,2.7,6.9,2.2,10.7c-2.8,5.6-7.8,8.5-13.6,9.6C53.9,88.1,47,88.8,40.7,84.6z"/>
	<path class="st19" d="M40.7,84.6c4.6,1.3,9.1,2.3,13.9,2.1c6.7-0.3,12.6-2.1,17.1-7.3c0.7-0.8,1.7-1.5,2.5-2.2
		c0.9,0.9,1,2.1,1.4,3.2c0,0,0,0.2,0,0.2c-4.8,6.2-11.4,9.4-18.7,11.3c-2.6,0.3-5.2,0.4-7.7,0c-1.6-0.6-3.2-1-4.7-1.7
		c-1.2-0.5-3-0.8-2.4-2.9C42.3,86.2,40.6,85.8,40.7,84.6z"/>
	<path class="st16" d="M72.4,52.4c-0.5-2.2,0.1-3.9,1.8-5.3c2.4,1.5,5.1,2.9,4.6,6.4c-0.4,3.6-2.6,5.7-5.9,6.7
		c-2.5,0.8-0.9,2.8-1.4,4.2c-0.4-0.2-1.1-0.5-1.1-0.6c0.9-2-0.5-3.7-0.9-5.5c1.2,0.1,1.8-0.7,2.6-1.4c0.5-0.3,1-0.3,1.5-0.6
		c1.5-0.6,2.5-1.6,2-3.3C75.1,51.1,73.5,52.6,72.4,52.4z"/>
	<path class="st17" d="M34.7,55.2c0.5,0.7,0.9,1.9,1.8,1.6c1.4-0.4,0.4-1.9,0.8-2.9c0-1.1,0.1-2.2,0.2-3.9c1.6,4.8-0.2,8.3-2.1,11.8
		c-0.1-1.6,0.1-3-1.7-4.3c-4.8-3.6-3.9-9.3,1.5-11.7c0.1,1.4-0.2,2.7-0.6,3.9C33,51.5,33.5,53.4,34.7,55.2z"/>
	<path class="st8" d="M50.6,156.2c-1.6-2.3,1.3-3.8,0.9-5.9c0.9-0.8,1.8-0.8,2.7,0.1c1.1,2.2,2.1,4.4,3.3,6.5
		c0.4,0.7,0.4,1.2-0.1,1.7C55.1,157.7,52.9,156.9,50.6,156.2z"/>
	<path class="st38" d="M39.3,164.9c-1.5,4.6-0.3,9.4-0.7,14.1c-0.1,1.3,0.7,2.9-0.8,4c0-5.1,0-10.1,0.1-15.2
		C38,166.7,37.4,165.2,39.3,164.9z"/>
	<path class="st44" d="M50.8,67.7c-3,0.9-4.9-1-6.9-3c-0.9-1-1.7-2.1-2.8-2.8c-1-0.6-2-0.9-0.8-2.1c0.8-0.8,1.6-2.1,3-0.7
		c0.4,0.4,0.7,0.9,1.2,1.1C47,61.3,58.4,59,60.2,57c0.7-0.7,1.2-1.4,2.2-0.5c0.7,0.6,1.5,1.5,0.9,2.3c-2.2,2.7-3.5,6.3-6.8,8
		C54.7,67.6,52.9,68.1,50.8,67.7z"/>
	<path class="st43" d="M54.2,50.5c2.1,0.6,2.8,1.6,2.6,3.3c-0.1,1.4-1.2,1.8-2.3,2c-2.8,0.5-5.6,1-8.5,1.3c-1.4,0.2-2.4-0.5-3-1.7
		c-0.6-1.3,0.4-2.3,1.3-2.8c3.7-1.7,4.5-5.1,5.1-8.7c0.1-0.8,0.2-1.7,1.3-1.4c0.8,0.2,0.6,1,0.6,1.7c-0.1,2.2-2.1,4.1-0.4,6.6
		c0.6,0.9-1.4,1-2.2,1.3c-1.4,0.5-3.9,0.4-3.5,2.2c0.4,1.5,2.7,0.6,4.1,0.3c0.4-0.1,0.9-0.3,1.3-0.3C53.5,54.7,55.4,54.2,54.2,50.5z
		"/>
	<path class="st32" d="M60.4,39c-0.9-0.1-2.6-0.3-4.2-0.4c-1.1-0.1-1.7-0.7-1.5-1.7c0.2-1.3,1-0.8,1.9-0.9c1.6-0.1,3.4,0.2,4.9-0.8
		c1.4-0.9,3-1.6,4.6-0.3c0.7,0.6,0.9,1.5,0.4,2.4c-0.9,2-2.6,1.7-4.3,1.7C61.8,38.9,61.5,39,60.4,39z"/>
	<path class="st33" d="M48.2,40.3c-1.9-0.7-4-0.4-5.9-0.5c-1.3-0.1-2.5-0.2-3-1.6c-0.4-1-0.3-2,0.7-2.7c1.1-0.8,2.3-0.7,3.4,0
		c2,1.4,4.1,2.3,6.6,1.7c0.7-0.2,1,0.4,1.1,1c0.2,1.8-1.2,1.8-2.3,2.1C48.6,40.6,48.4,40.6,48.2,40.3z"/>
	<path class="st29" d="M59.9,47.2c-2.3,0.2-3.9-1-4.2-3.2c-0.2-2.4,2-2.8,3.7-2.7c1.8,0.1,4.5-0.2,4.4,2.7
		C63.8,46,62.3,47.3,59.9,47.2z"/>
	<path class="st18" d="M42,87.4c1.3,2.9,4.8,1.9,6.7,3.7c-2.7,1.8-5.4,1.7-8.1,0.1c-1.4-2.1-2.6-4.2-4.1-6.1c-0.8-1-1.2-2-1.2-3.3
		C37.4,83.8,39,86.5,42,87.4z"/>
	<path class="st30" d="M48.2,44.4c-1,1.8-2.6,2.3-4.5,2c-2.1-0.3-3.4-1.6-3.2-3.6c0.2-2.5,2.2-2.7,4.2-2.5c0.9,1.1-0.6,2.4,0.2,3.5
		c1.4-0.2,0.8-1.3,1-2c0.5-1.8,1.5-1.4,2.2-0.3C48.7,42.4,48.6,43.5,48.2,44.4z"/>
	<path class="st2" d="M52.3,72.7c-1.2-0.7-3.7,0.7-3.7-1.5c0-1.4,2.2-0.4,3.4-0.7c0.1,0,0.2,0,0.3,0c1,0,2.7-1.4,2.8,0.7
		C55.2,72.6,53.7,72.9,52.3,72.7z"/>
	<path class="st1" d="M58.7,32.3c1.8-0.8,3.5-1.8,5.4-2.3c2.8-0.7,5.6-0.7,6.8,2.7c-2.6-1.1-5.2-3-8.1-1.2
		C61.5,32.3,60.1,32.3,58.7,32.3z"/>
	<path class="st4" d="M44.2,45c-1.8-1.7,0.5-3,0.4-4.6c1.2-0.1,2.4-0.1,3.6-0.2c0.2-0.1,0.3-0.1,0.5,0c-0.2,1.4,0.5,2.9-0.6,4.1
		c-0.2-0.9,0.2-2-0.6-2.8c-0.3-0.3-0.7-0.7-1-0.1c-0.1,0.3,0,0.6,0.1,1C45.7,43.3,45,44.2,44.2,45z"/>
	<path class="st39" d="M64.8,112.7c4.5,0.3,8.8,2.3,13.6,0.9c2.8-0.8,4.5-2.7,6.5-4.3c0.7-0.6,1-1.7,2-1.5c1.1,0.3,0.6,1.5,0.7,2.3
		c0.4,3.4,0.9,6.8,2.9,9.7c0.7,1,1,1.8-0.1,2.5c-2.6,1.6-5.2,3.2-8.4,4c0.4-1.8,1.6-2.4,2.6-3.3c0.8-0.7,2.7-0.8,2.1-2.1
		c-0.7-1.8-1.3-4.1-3.2-4.9c-1.9-0.8-1,1.2-1.3,2c-2.2,1-4.5,1.8-6.7,2.8c-2.5,1-4.3,2.7-4.4,5.7c-0.3,3.1,0.9,6.5-1.5,9.3
		c-3.7,1.1-7.4,1.2-11-0.1c-3.3-1.2-6.7-1.3-10,0c-2,0.8-4.1,1-6.2,0.6c-1.1-0.3-2.2-0.5-3.2-0.9c-2.2-0.9-3.4-2.4-3-4.9
		c0.3-1.5,0.3-3.1-0.1-4.6c-0.1-2.1-1.2-3.4-3-4.4c-2.1-1.1-4.5-1.9-6.5-3.3c0.2-1.1,0.6-2.5-1.4-1.8c-2.2,0.7-3.2,5-1.4,6.6
		c1.1,1,2.6,1.7,3.6,3.5c-3.9-0.6-6.8-2.4-9.4-4.6c-0.8-0.6-0.1-1.2,0.3-1.7c2-3,3.2-6.3,3.1-10c1.1-0.2,1.4,0.7,2,1.1
		c2.5,1.9,4.5,4.8,8.5,3c2.3-1,5,0.5,7.5-0.6c0.9-0.4,1.3,0.7,1.8,1.2c1.4,1.6,1.6,4.1,3.8,5.1c2.1,4.8,3.4,5.1,8.1,1.8
		c2.3-1,4.8-1.6,7.2-2.2c2-0.5,3.1-1.4,3.1-3.6C63.3,114.6,63.4,113.3,64.8,112.7z"/>
	<path class="st15" d="M44.7,120.2c-3.4-0.4-3.4-3-3.6-5.5c0-4.8-0.9-9.4-1.6-14.1c0.9-2.1,0-4.1-0.1-6.1c0-1.1-1-2.7,1.1-3.2
		c2.7,0,5.4,0,8.1-0.1c3,0,5.9,0,8.9,0c1.9-0.4,3.9-0.7,5.8-0.8c1.4,0,3.3,0,2.9,2.4c0,1.3-0.1,2.6-0.1,3.9c0.5,1.4,0.5,2.8,0.7,4.2
		c0,0.7-0.2,1.3-0.8,1.8c-1.5,3.2-1.3,6.7-1.3,10.1c1,8.1-5.6,7.6-10.4,9.2c-0.5,0.2-1.1,0.2-1.6,0.3
		C49.7,123.1,47.2,121.8,44.7,120.2z"/>
	<path class="st21" d="M36.6,125.3c1.3,1.3,1,3.1,0.6,4.4c-1,3.5,0.8,4.7,3.7,5.2c0.4,0.1,0.8,0.4,1.2,0.6c-1.5,0.9-3.3,1.6-4.1,3.4
		c0.3,2.4-1.3,2.3-2.8,1.8c-3-1.1-6.1-2-8.4-4.5c2.1-2.8,2.4-6.2,3.2-9.4C32,125,34,124.1,36.6,125.3z"/>
	<path class="st9" d="M36.6,125.3c-2.2,0.5-4.3,1-6.5,1.5c-0.2-1.7-1.7-2.4-2.8-3c-3.4-1.7-3.1-3.5-0.6-5.7c3.7,0.1,6.5,2.3,9.4,4.2
		C37.1,123,36.7,124.2,36.6,125.3z"/>
	<path class="st20" d="M69.5,135.6c1.1-3.3,0.5-6.8,0.9-10.2c3.2-1.5,5.4-1.1,7.9,1.2c0.8,3.4,3.8,6.2,2.8,10.1
		c-2.1,2.7-5.3,3.3-8.3,3.9c-2.6,0.6-2.5-2.7-3.8-4.1C68.8,136.1,69.1,135.8,69.5,135.6z"/>
	<path class="st25" d="M66.1,100.6c-0.3-1.3-0.8-2.6,0-3.9c2.2-1.6,4.9-2.7,6.2-5.3c0.8-1.5,2.4-1.7,3.7-2.4
		c0.3,3.9,0.3,3.9,4.3,2.7c0.6-0.2,1.1-0.3,1.5,0.2c0.4,0.5,0.3,1.1-0.1,1.5c-1.3,1.3-2.3,2.9-4.3,3.5c-1.3,0.4-3.6,0.4-2.7,3
		c-0.8,1.1-2.1,0.8-3.2,1C69.7,102,67.9,102,66.1,100.6z"/>
	<path class="st6" d="M78.2,126.7c-2.5-0.9-5.1-1.7-7.9-1.2c0.5-2.4,1.7-4.3,4.1-5.1c2.6-0.8,4.8-3.2,7.8-2.4c2.5,2.6,1.8,4.5-1.2,6
		C80,124.6,79.2,125.8,78.2,126.7z"/>
	<path class="st35" d="M66.1,100.6c1.8,0.1,3.7,0.1,5.5,0.2c0.7,1.4,0.3,2-1.3,2c-1.4,0-2.8,0-4.2,0C66.1,102,66.1,101.3,66.1,100.6
		z"/>
	<path class="st14" d="M69.5,135.6c-0.2,0.3-0.3,0.6-0.5,1c-1.2,0.7-0.3,2.5-1.5,3.2c-0.3,0.3,0.2,0.1-0.2,0.2
		c-6.7,2.4-13.1,7.1-20.6,2.6c-2.3-1.3-5.4-0.4-7.2-2.9c-0.5-0.3-0.9-0.5-1.4-0.8c-0.7-3.6,1.8-3.4,4.1-3.4c2.3,0,4.4,0,6.7-1
		c3.4-1.5,7-1.2,10.5,0.5C62.6,136.5,66.1,135.1,69.5,135.6z"/>
	<path class="st26" d="M39.4,139.7c3.5,1.1,7.1,1.6,10.4,3.3c2.2,1.1,4.9,1.1,7.1,0c3.3-1.6,7-2.2,10.5-3.2c0,1.9,0,3.7,0,5.6
		c-4.5,1.4-8.9,3.1-13.3,5c-0.9,0-1.8-0.1-2.7-0.1c-4.1-1.6-8.1-3.3-12.2-4.9C38.6,143.4,39.7,141.6,39.4,139.7z"/>
	<path class="st0" d="M72.4,52.4c1.1-0.4,1.5-2.6,3.2-1c1,1,1.8,2.1,1,3.5c-1,1.7-2.2,3.1-4.5,2.1C72.2,55.5,72.3,54,72.4,52.4z"/>
	<path class="st36" d="M34.7,55.2c-2.8-2.4-2.9-3.9-0.1-5.5C34.7,51.5,34.7,53.3,34.7,55.2z"/>
	<path class="st5" d="M66.3,92.8c-0.1-1.7-1.3-1.4-2.4-1.5c-2.1,0-4.2-0.1-6.3-0.2c6.9-1.9,12.5-6.1,18-10.4
		C74.4,86.2,70.3,89.5,66.3,92.8z"/>
	<path class="st34" d="M44.5,62c5.2-0.3,9.9,0.4,14.7-1.6c-1.2,4.1-4.1,5.5-7.3,5.8C49,66.5,46.3,65.4,44.5,62z"/>
	<path class="st24" d="M60.3,45.7c-0.9,0-1.7-0.2-1.5-0.7c0.3-0.8,0.2-2.1,1.4-2.3c0.7-0.1,1.1,0.5,1.2,1.3
		C61.6,45,60.9,45.4,60.3,45.7z"/>
	<path class="st23" d="M44.2,45c0.2-1.5,0-3.3,2.5-2.5C47,44.5,46.2,45.4,44.2,45z"/>
	<path class="st10" d="M53.9,131.1c-3-0.1-6.4,1.4-7.8-2.4c-0.6-1.5,0.6-2.8,2.2-3.2C53.2,124.4,52.4,128.7,53.9,131.1z"/>
	<path class="st10" d="M44.7,120.2c2.7,0.7,5.4,1.3,8,2c-1.1,2.3-3.4,2.7-5.3,2.3C45.5,124.2,44.5,122.4,44.7,120.2z"/>
	<path class="st31" d="M51.9,97.4c1.5-0.6,0-3.2,2.1-3.3c2.9-0.1,5.8-0.1,8.7,0.2c1,0.1,0.8,1.5,0.8,2.3c-0.4,6.1-0.8,12.2-1.5,18.2
		c-0.3,2.7-5.4,5.4-8.1,4.6c-1.9-0.5-0.4-2.9-2.1-3.4c-1.6-4.5-0.5-9.2-0.8-13.8C51,100.5,50.8,98.8,51.9,97.4z"/>
	<path class="st13" d="M51.9,97.4c0,6.2-0.1,12.4-0.1,18.6c-2.3-0.6-4.5-1.2-6.8-1.7c-1.3-0.3-1.7-1-1.4-2.2
		c0.3-1.4,1.5-0.8,2.1-0.6c2.6,1.1,3.3,0.2,3.1-2.4c-0.2-3,0.1-6-0.1-9C48.6,97.5,49.4,96.6,51.9,97.4z"/>
	<path class="st46" d="M61.3,104.7c0.6,2.8,0,5.4-0.3,8.1c-0.1,1.2-6.1,3.7-6.7,2.8c-0.6-1-0.7-2.2,0.8-2.7c0.8-0.3,1.8-0.4,2.6-0.8
		c1.3-0.7,1.1-2.2,1-3.3c-0.2-1.7-1.7-0.8-2.4-0.6c-1.9,0.5-2.4-0.2-2.3-1.9c0.1-1.1,0-2.2,0-3.3c0-6.2,0-6.2,6.4-5.8
		c0.8,0.1,1.9-0.3,1.9,1.2c0,1.5-0.9,1.5-2,1.6c-1.4,0.1-3.2-1-3.5,2C56.3,106.4,59,105,61.3,104.7z"/>
</g>
</svg>
