<?xml version="1.0" encoding="utf-8"?>
<!-- Generator: Adobe Illustrator 16.0.0, SVG Export Plug-In . SVG Version: 6.00 Build 0)  -->
<!DOCTYPE svg PUBLIC "-//W3C//DTD SVG 1.1//EN" "http://www.w3.org/Graphics/SVG/1.1/DTD/svg11.dtd">
<svg version="1.1" id="Ebene_1" xmlns="http://www.w3.org/2000/svg" xmlns:xlink="http://www.w3.org/1999/xlink" x="0px" y="0px"
	 width="110px" height="200px" viewBox="0 0 110 200" style="enable-background:new 0 0 110 200;" xml:space="preserve">
<style type="text/css">
<![CDATA[
	.st0{fill-rule:evenodd;clip-rule:evenodd;fill:#D78B5F;}
	.st1{fill-rule:evenodd;clip-rule:evenodd;fill:#738488;}
	.st2{fill-rule:evenodd;clip-rule:evenodd;fill:#A5384B;}
	.st3{fill-rule:evenodd;clip-rule:evenodd;fill:#DA8863;}
	.st4{fill-rule:evenodd;clip-rule:evenodd;fill:#DA895A;}
	.st5{fill-rule:evenodd;clip-rule:evenodd;fill:#797F85;}
	.st6{fill-rule:evenodd;clip-rule:evenodd;fill:#DFBA9B;}
	.st7{fill-rule:evenodd;clip-rule:evenodd;fill:#AA3449;}
	.st8{fill-rule:evenodd;clip-rule:evenodd;fill:#7E8B98;}
	.st9{fill-rule:evenodd;clip-rule:evenodd;fill:#7E8B99;}
	.st10{fill-rule:evenodd;clip-rule:evenodd;fill:#110E00;}
	.st11{fill-rule:evenodd;clip-rule:evenodd;fill:#E2B693;}
	.st12{fill-rule:evenodd;clip-rule:evenodd;fill:#E3BC00;}
	.st13{fill-rule:evenodd;clip-rule:evenodd;fill:#E6C04B;}
	.st14{fill-rule:evenodd;clip-rule:evenodd;fill:#E79F72;}
	.st15{fill-rule:evenodd;clip-rule:evenodd;fill:#ECAB7D;}
	.st16{fill-rule:evenodd;clip-rule:evenodd;fill:#EDAB7C;}
	.st17{fill-rule:evenodd;clip-rule:evenodd;fill:#EDAC7B;}
	.st18{fill-rule:evenodd;clip-rule:evenodd;fill:#545858;}
	.st19{fill-rule:evenodd;clip-rule:evenodd;fill:#555757;}
	.st20{fill-rule:evenodd;clip-rule:evenodd;fill:#BA3F50;}
	.st21{fill-rule:evenodd;clip-rule:evenodd;fill:#202222;}
	.st22{fill-rule:evenodd;clip-rule:evenodd;fill:#232423;}
	.st23{fill-rule:evenodd;clip-rule:evenodd;fill:#242525;}
	.st24{fill-rule:evenodd;clip-rule:evenodd;fill:#252525;}
	.st25{fill-rule:evenodd;clip-rule:evenodd;fill:#26211C;}
	.st26{fill-rule:evenodd;clip-rule:evenodd;fill:#F8F4EA;}
	.st27{fill-rule:evenodd;clip-rule:evenodd;fill:#F9D500;}
	.st28{fill-rule:evenodd;clip-rule:evenodd;fill:#F9F8F0;}
	.st29{fill-rule:evenodd;clip-rule:evenodd;fill:#2B2622;}
	.st30{fill-rule:evenodd;clip-rule:evenodd;fill:#FBF7F3;}
	.st31{fill-rule:evenodd;clip-rule:evenodd;fill:#6D7C88;}
	.st32{fill-rule:evenodd;clip-rule:evenodd;fill:#6E7C89;}
	.st33{fill-rule:evenodd;clip-rule:evenodd;fill:#D14159;}
	.st34{fill-rule:evenodd;clip-rule:evenodd;fill:#D28A68;}
	.st35{fill-rule:evenodd;clip-rule:evenodd;fill:#D3405A;}
	.st36{fill-rule:evenodd;clip-rule:evenodd;fill:#D3415A;}
	.st37{fill-rule:evenodd;clip-rule:evenodd;fill:#D3415B;}
	.st38{fill-rule:evenodd;clip-rule:evenodd;fill:#050400;}
	.st39{fill-rule:evenodd;clip-rule:evenodd;fill:#D4885D;}
]]>
</style>
<g id="three">
	<path class="st16" d="M40,80.2c-0.1-3.6,0.4-7.1,1.3-10.5c0.5-1.9,0.4-3.3-1.3-4.6c-1.9-1.5-2-3.6-1.3-5.8c0.5-1.7,1.5-2.5,3.3-2.4
		c1.3,2-0.4,4.1,0.3,6.7c0.2-3.5,0.4-6.4,0.4-9.3c0-2.6,0.6-5.1,1.8-7.4c1.5-2.7,4.1-3.8,6.7-2.3c4.3,2.5,8.4,1.9,12.7,0.2
		c4.7-1.8,7.9,0.3,8.1,5.4c0.2,4.5-1,8.8-1.9,13.1c-0.2,1.2-0.6,2.4-0.3,3.7c0.4,0.9-0.2,1.9,0.1,2.8c-0.3,2,1.1,3.8,0.9,5.9
		c-2.7,8.9-8.8,12.8-18.5,11.8c-4.1-0.4-8-1.3-11.3-4C40.3,82.3,39.5,81.5,40,80.2z"/>
	<path class="st9" d="M22,75.5c-0.1,0.4-0.2,0.9-0.4,1.3c-0.7,2-1.6,4,1.8,4.5c0.6,0.1,1.5,0.9,1.7,1.6c0.9,2.6,2.4,2.2,4.2,1.1
		c0.4,0.2,0.6,0.6,0.7,1.1c0.1,5.3,3.9,8.1,7.6,10.9c1.1,0.7,2.1,1.5,3.4,1.8c1,0.3,1.7,0.8,1.9,1.9c0.7,3.3,1.5,6.6,1,10.1
		c-4.3,1.8-8.7,2.6-13.2,1.2c-1.4-0.2-1.7-1.3-2.2-2.3c-0.9-2.4-1.7-4.8-3-7c-0.5-1.7-2.1-1.1-3.2-1.3c-3.5-0.6-6.7-1.5-9.6-3.6
		c-2-1.4-3.9-3-4.6-5.4c-0.5-1.9-3.7-2.3-2.9-4.4C7,82.3,7.6,77,11.2,73.2c1.2-1.2,2.2-2.6,3.8-3.3C18.2,70.7,20.4,72.7,22,75.5z"/>
	<path class="st7" d="M85.3,148.4c-5.3-1.2-10.5,0.2-15.8,0.7c-1.6,0.1-3.5,0.7-4.6-0.2c-1.2-0.9-0.2-2.8,0-4.2
		c0.2-2.7-1.2-5.1-1.1-7.8c0-1.4,0-2.9-0.1-4.3c0.2-1.3,1-2.5,1.2-3.9c0.7-1.6,1-3.4,1.1-5.1c0.2-3.8,1.8-6.8,5.8-7.9
		c4.3-1.2,6.9-4.4,8.9-8.2c0.9-0.4,1.8-0.4,2.7,0.2c0.5,0.4,0.8,0.9,0.9,1.6c2.8,12,3.7,24.2,2.3,36.5
		C86.5,146.8,86.7,148.1,85.3,148.4z"/>
	<path class="st8" d="M83.1,108.1c-0.9,0-1.8-0.1-2.7-0.1c-4.5,5.4-11.1,6.5-17.1,2.9c-0.6-0.4-1.1-0.8-1.4-1.5
		c-0.5-2.8-0.4-5.5,1.1-8c3.6-0.9,7.3-1.2,10.8-2.5c3.7-1.3,7.2-2.8,9.4-6.4c0.3-0.6,0.8-1,1.5-0.6c0.1,0,0.2,0.1,0.2,0.1
		c2.7-0.3,5-2.3,7.9-2c0.1,0,0.6-2.9,0.9-4.4c2.5-1.7,5.4-2.3,8.4-2.1c3.1,4.3,3.2,9.2,2.6,14.2c-0.2,1.5-0.9,3-0.4,4.7
		c0.2,0.8-0.3,1.8-1.1,1.9c-2.5,0.3-4,2.4-6.1,3.4c-2.7,1.2-5.6,1.4-8.5,1.4C86.4,110.5,84.8,109.2,83.1,108.1z"/>
	<path class="st22" d="M69.8,67.7c-1.9-0.3-1-1.6-0.8-2.4c0.8-3.7,1.8-7.4,2.2-11.2c0.2-1.6,0.2-3.2,0.1-4.8
		c-0.2-3.7-2.3-5.2-5.9-4.3c-2.1,0.5-4.1,1.6-6.3,1.9c-2.6,0.3-4.9-0.1-7.2-1.3c-3.2-1.8-5.6-1-7.1,2.3c-1.1,2.5-1.5,5.1-1.5,7.8
		c0,2.7,0,5.3,0,8c0,0.5,0.3,1.4-0.6,1.5c-0.7,0.1-1-0.6-1.2-1.2c-0.5-1.2-0.1-2.5,0-3.7c0.1-1.1,0.3-2.3,0.5-3.4
		c0.4-2.4-0.3-4.8-0.5-7.1c-0.4-4.3,0.9-7.5,5.1-9.2c1.4-0.5,1.2-1.4,1.2-2.5c-0.1-5.9,6.2-10,11.1-7.2c1.1,0.6,2.1,1.5,2.2,2.8
		c0.1,0.9-0.6,1.4-1.4,1.7c-1.4,0.4-2.6,0-3.4-1.3c0.8-0.8,1.7,0.3,2.6-0.5c-1-1.7-2.3-2.3-4.1-1c-0.7,0.5-1.4,1.2-1.1,2.2
		c0.2,1.1,1,1.7,2.1,1.7c1.1,0,2.3,0,3.4-0.1c3.8-0.3,7.2,0.8,9.9,3.5c2,1.9,3.6,4.3,5.8,6.1c1.6,1.2,1.5,3.3,1.3,5.2
		c-0.4,2.9-1.6,5.4-3.2,7.8c-0.4,1.9-0.8,3.8-0.9,5.7C72,66,71.6,67.4,69.8,67.7z"/>
	<path class="st7" d="M41,143.5c-3.4,0.2-6.6,1.1-9.6,2.7c-2.2-1.2-2.5-3.5-2.6-5.4c-0.6-7.2-2.1-14.4-1.8-21.6
		c0.1-2.3,0.5-4.6,0.7-6.9c0.1-1.3,0.6-2.3,2.2-2c0.9,0.1,1.8,0.4,2.4,1.1c1.3,1.4,2.9,2.2,4.6,3c3.1,1.4,5.5,5.9,4.7,9
		c-0.4,1.5,0,2.6,0.6,3.8c0.4,1.4,0.3,2.8,0.7,4.2c0.2,1.5-0.2,3-0.6,4.5c-0.4,1.6-0.3,3.1-0.3,4.7C41.8,141.6,41.9,142.7,41,143.5z
		"/>
	<path class="st35" d="M30.3,110.5c-1.2,0-1.9,0.1-2.1,1.7c-0.4,4-0.7,8.1-0.4,12.1c0.4,5.6,0.9,11.2,1.7,16.8
		c0.2,1.8,1.3,3.4,1.9,5.1c-0.1,3.1,1.5,5.7,2.7,8.5c0.4,1,0.9,1.9,1.4,2.9c-3.7,0.5-8.1-1.8-9.8-5.2c-3.3-6.7-4.2-13.9-4.2-21.2
		c0-10,1.2-20,3.9-29.7c1.3,0,1.4,0.9,1.8,1.8c1.1,2.3,1.3,4.9,3.2,6.8c0.1,0.1,0.2,0.3,0.1,0.3C30.4,110.5,30.4,110.5,30.3,110.5z"
		/>
	<path class="st37" d="M83.1,108.1c1.8,0.4,3.5,1.3,5.4,1c0.4,3.9,2,7.5,2.8,11.3c2.1,9.6,3.4,19.2,1.3,28.9
		c-1.2,5.5-4.6,8.8-9.8,9.4c1-3.4,2.6-6.6,2.5-10.2c0.7-2.3,0.9-4.6,1-7c0.2-10.1,0.1-20.2-2.6-30C83.4,110.3,83.9,109.1,83.1,108.1
		z"/>
	<path class="st33" d="M84.7,91.9c-2.1,3-4.7,5.4-8.2,6.8c-4.2,1.6-8.5,3-13.1,2.7c-1.7-1.2-1-2.6-0.3-4.1c2.2-3,3.9-6.4,7-8.8
		c0,0-0.2-0.3-0.3-0.4c0.4-2.3,2.6-3,3.9-4.6c1.2-0.2,1.9,0.4,2.8,1.3c1.5,1.6,2.9,3.7,5.7,3.6C84,88.3,84,90.5,84.7,91.9z"/>
	<path class="st31" d="M64.4,136.5c0.3,3.2,1.6,6.3,1.2,9.6c-0.1,0.9-0.1,1.9-0.6,2.8c1.6,0.1,3.1,0.2,4.6,0.2
		c-0.6,0.1-1.2,0.3-1.8,0.2c-1.9-0.2-2.9,0.3-2.3,2.4c-1.8,1.6-3.9,2-6.2,2.1c0-3.1-1.2-5.6-3.7-7.4c-0.5-2.3-2.7-4-1.8-6.7
		C57.1,137.9,60.5,136.4,64.4,136.5z"/>
	<path class="st36" d="M37.3,96.3c-4.2-2.5-8.9-6.4-8-12.3c0.6-0.7,1.3-1.4,2.2-1c2.4,1,4.1-0.8,5.8-1.7c0.9-0.5,1.7-0.9,2.7-1
		c0.4,0.9,0.7,1.8,1.1,2.7c0.5,0.6,0.7,1.4,1,2.1c0.4,1.2,1.4,2.2,1.7,3.5c-0.1,1.6,1.7,3,0.6,4.7c-0.6,0.5-1.2,0.5-1.9,0.4
		c-1.8-0.5-1.7-2-1.7-3.5c-1.2,0.4-0.5,2.2-2,2.2c-1.2,0.1-1.7-1.3-3-1.3c0.3,1.2,1.3,1.6,2,2.4C38.9,94.5,39.2,95.6,37.3,96.3z"/>
	<path class="st24" d="M59.3,153.8c1.9-1.1,4-1.6,6.2-2.1c1.5,3.3,1.6,6.8,1.8,10.2c0.3,3.4,1.4,5.9,4.9,6.8
		c0.5,0.1,1.2,0.3,1.5,1.3c-3.6,0-7.1,0-10.6,0c-0.6,0-1.5-0.1-1.1-1c1-2.3-0.4-4.2-0.9-6.3C60.5,159.8,59,157,59.3,153.8z"/>
	<path class="st32" d="M41,143.5c0.4-2.6-0.6-5.4,0.6-7.9c0.9-0.6,1.7-0.1,2.4,0.2c2.6,1.2,5.4,2.1,7.7,3.8c0.5,1.8-0.8,3.3-1.1,4.9
		c-2,1-1.5,3.2-2.2,4.8c-0.5,1.2-0.7,2.6-1,3.8c-2.3,0.7-4.1-0.3-5.8-1.7C41.9,148.9,42.3,146.1,41,143.5z"/>
	<path class="st23" d="M41.6,151.6c1.9,0.6,3.9,1.1,5.8,1.7c1.2,1.3,0.6,2.8,0.5,4.3c-0.2,3.9-3,7.5-1.3,11.7
		c0.4,0.9-0.7,0.8-1.3,0.8c-3.4,0-6.9,0-10.7,0c1.8-2.1,4.9-1.6,5.8-4.1c0.8-3.8,0.1-7.6,0.4-11.4C40.9,153.4,40.5,152.3,41.6,151.6
		L41.6,151.6z"/>
	<path class="st15" d="M102.1,83.4c-2.8,0.7-5.6,1.4-8.4,2.1c-3.3-1.2-3.6-4.4-5-6.9c-0.6-1.2,0.3-2,1.2-2.6
		c1.8-1.2,3.8-1.8,5.9-2.1c1.3-0.2,2.2,0.4,2.8,1.6C99.8,78.1,101.3,80.6,102.1,83.4z"/>
	<path class="st17" d="M22,75.5c-2.2-1.9-4.4-4-6.9-5.5c2.3-2,4.6-3.9,6.9-5.9c1.2-1,2.4-1,3.6,0.1c0.3,0.2,0.6,0.4,0.8,0.6
		c1.5,1.6,4.4,3.2,3.4,5.5c-1,2.1-3,4.3-5.9,4.7C23.1,75.1,22.6,75.3,22,75.5z"/>
	<path class="st0" d="M41.6,85c-0.7-0.6-0.5-1.4-0.5-2.2c4,2.3,8.3,3.9,13,3.7c4.8-0.2,9.4-1,13.1-4.6c0.9-0.9,1.5-1.9,1.9-3.1
		c0.5-1.2,0.4-2.7,1.6-3.5c0.3,1.4,0,2.9,0.7,4.2c1.2,5.4-2.8,7.2-6.4,8.9c-7.2,3.2-14.3,2.6-21.1-1.4C43,86.6,42.5,85.6,41.6,85z"
		/>
	<path class="st14" d="M41.6,85c0.1-0.2,0-0.9,0.5-0.5c8.4,8,21,6,27.5,0.5c1.9-1.6,1-3.7,1.9-5.3c0.6,0.6,0.4,1.5,0.6,2.2
		c0.2,0.8,0.2,1.9,1.5,1.6c-0.7,2-2.5,3.1-3.7,4.6c-2.6,3.1-6.5,4-10,5.5c-2.8,0.3-5.7,0.3-8.5,0c-3.1-1.2-6.3-2.3-8.1-5.5
		C42.5,87.2,41.7,86.3,41.6,85z"/>
	<path class="st11" d="M69.8,67.7c1.5-0.9,1.5-2.5,1.5-4c-0.1-1.8,0.1-3.5,1.6-4.8c4.3,3.2,4.5,7.8,0.3,9.8c-1,0.5-2.2,0.6-3.2,0.9
		C68.7,69.1,68.5,68.4,69.8,67.7z"/>
	<path class="st2" d="M50.6,144.6c-0.8-1.8,0.4-3.1,1.1-4.5c0.7-0.8,1.4-0.8,2.2-0.1c0.1,1.6,1.1,2.9,1.7,4.3c0.3,0.8,0.7,1.4,0,2.2
		C53.9,145.8,52.2,145.2,50.6,144.6z"/>
	<path class="st32" d="M41.6,151.6c-1.2,3.6-0.2,7.3-0.5,10.9c-0.1,1.1,0.7,2.5-0.6,3.4c0-4,0-8.1,0-12.1
		C40.5,153,40,151.7,41.6,151.6z"/>
	<path class="st34" d="M54.6,75c-2.6-0.7-5.3-1.2-6.9-3.8c-0.4-0.6-0.6-1.3-1.4-1.5c-1.3-0.4-1.1-1.2-0.4-1.9
		c0.5-0.5,0.8-1.8,2.2-0.4c1.3,1.4,3.5,1.4,5.4,1.2c3-0.2,6.1-0.1,8.4-2.6c0.5-0.6,1-0.3,1.3,0.1c0.4,0.5,1.5,0.9,0.7,1.7
		c-2.4,2.1-3.1,5.9-6.8,6.7C56.3,74.6,55.5,75,54.6,75z"/>
	<path class="st39" d="M54.6,54.4c0.7,1,0.2,2-0.2,2.9c-0.4,0.9-0.9,1.9-0.3,2.8c1.3,1.7,0.3,1.9-1.1,2c-0.5,0-1.1,0-1.6,0.2
		c-0.7,0.3-1.8,0.5-1.5,1.5c0.2,0.8,1.2,0.5,1.9,0.4c1.1-0.1,2.3-0.4,3.4-0.5c1.2-0.1,2.8,0.2,1.5-1.9c-0.1-0.2,0-0.8,0.2-0.9
		c0.4-0.3,0.8,0,1.1,0.3c1.6,1.4,1.4,3.2-0.8,3.7c-2.3,0.6-4.6,1-7,0.9c-1,0-1.7-0.6-2.1-1.4c-0.4-0.9-0.1-2.1,0.8-2.3
		c3.5-0.9,3.7-4,4.6-6.7c0.1-0.3,0.3-0.6,0.5-0.9C54.1,54.5,54.3,54.5,54.6,54.4z"/>
	<path class="st29" d="M54.8,52c-2.7,1.1-5.4,0-8.1-0.3c-1.2-0.1-1.8-1.3-1.3-2.5c0.7-1.5,2-1.3,3.1-0.7c1.1,0.6,1.9,1.7,3.4,1
		c0.6,0.3,1.2,0.4,1.9,0.4C55.3,50,55.7,50.8,54.8,52z"/>
	<path class="st25" d="M57.6,51c1.1-1.2,2.7,1.2,3.7-0.6c1,1,1.7-0.2,2.5-0.4c1-0.3,2.1-0.6,3,0.2c1,0.9,0.4,1.9-0.1,2.9
		c-0.2,0.3-0.4,0.7-0.7,0.8c-2.5,0.3-5.1,0.2-7.5-0.6C57.5,53,56.8,52.2,57.6,51z"/>
	<path class="st6" d="M57.6,51c-0.1,0.8,0,1.7,1,1.8c2.7,0.3,5.3,1,8,0.3c0,1.5,0.2,3-0.4,4.6c-1-0.8-0.4-1.7-0.8-2.5
		c-0.3,0.6-0.5,1.2-0.8,1.7c-0.1,0-0.2-0.1-0.2-0.1c-1.5-3.1-3.9-3.4-5.7,0.1c-0.2-0.3-0.5-0.6-0.5-0.9c0.3-2.6-1.2-3.5-3.3-4
		c0.2-1.3,0.1-2.5-1.7-1.5c-1.1,0.5-0.7-0.6-1.1-1C54.2,48.8,55.8,50.2,57.6,51z"/>
	<path class="st26" d="M49.4,52.6c1,0.2,3,0.4,3.2,2.3c0.1,1.6-1.4,2.6-3.1,2.5c-1.7-0.1-3.1-0.7-3.1-2.8
		C46.3,53,47.2,52.3,49.4,52.6z"/>
	<path class="st28" d="M58.7,56.8c-0.2-1.9,0.3-3.2,2.5-3.2c2.1,0,3.7,0.6,3.5,3.2C62.5,59.2,60.8,59.2,58.7,56.8z"/>
	<path class="st3" d="M54,76.3c0.9,0.6,2.5-0.6,2.6,1c0.1,1-1.2,1.4-2.3,1.3c-1.2,0-2.8-0.2-2.8-1.4C51.6,75.7,53.3,77.1,54,76.3z"
		/>
	<path class="st32" d="M30.3,110.5c0.1-0.2,0.1-0.3,0.1-0.5c4.4,1.6,8.7,0,13.1-0.5c1.3,0.6,0.9,1.8,1,2.7c0.1,1.6,0.8,2.3,2.2,2.9
		c4.2,1.8,8.4,1.7,12.6,0c1.1-0.5,1.7-1.1,1.8-2.3c0.1-1.2,0-2.5,1.3-3.3c3.2,1.6,6.5,2.9,10.1,2.6c2.3-0.2,4-1.6,5.8-2.9
		c0.7-0.5,1.2-1.4,2.2-1.3c-0.7,4.8-4.3,6.9-8.3,8.4c-3.7,1.4-5.4,3.1-5.5,7c0,2.1-0.4,4-1.2,5.9c-3,1.1-5.7,1-8.6-0.9
		c-2.4-1.6-5.3-1.3-7.9-0.2c-2.6,1.1-5,0.6-7.2-1c-1.4-1.1-2-2-0.9-3.9c1-1.7-1.5-7-3.6-7.8C34.5,114.4,32.3,112.6,30.3,110.5z"/>
	<path class="st12" d="M62.4,109.5c-0.1,0.3-0.1,0.5-0.2,0.8c-0.7,1.6,0.6,4.3-1.1,4.9c-3.3,1.2-6.6,3.1-10.4,1.9
		c-0.3-0.1-0.7-0.2-1-0.3c-5.5-1.6-5.5-1.6-6.2-7.3c-0.4-3.4-0.8-6.8-1.2-10.2c0.3-1.2-0.6-2.2-0.6-3.3c-0.1-1.1-0.3-2.1,0.6-3
		c0.7,0,1.4-0.1,2.1-0.1c2.1-1.4,4.2-0.4,6.4,0c3.2,0,6.4,0,9.6,0c1.1-0.2,2.3-0.9,3.2,0.1c1.1,1.3,0.7,2.8-0.1,4.2
		c-0.3,1.4-0.8,2.7-0.1,4.1C62.5,104.1,62.3,106.8,62.4,109.5z"/>
	<path class="st20" d="M42.2,93.1c-0.4,2.1,1,4.2,0.1,6.3c-1.3-1.6-3.9-1.1-5-3.1c1.2-1.2,0.9-2.1-0.4-2.9c-0.6-0.4-1.1-0.9-1.6-1.4
		c-0.6-0.5-0.8-1.2-0.2-1.8c0.6-0.6,1.2-0.2,1.8,0.3c0.6,0.5,1.1,1.8,2.1,1.3c1.2-0.6,0.1-1.7,0.2-2.7c1,0,1.8,1.2,2.7-0.4
		C41.8,90.4,40.3,91.9,42.2,93.1z"/>
	<path class="st13" d="M41.7,127.2c3.2,0.9,6.2,1,9.4-0.4c1.9-0.8,4.3-0.4,5.8,0.8c2.2,1.8,4.6,1.6,7,1.5c0.5,0,1-0.1,1.5,0.2
		c-0.5,1-0.1,2.4-1.4,3c-4.3,1.8-8.8,3.8-13.5,2.7c-2.9-0.7-5.9-1.7-8.4-3.6C41.2,130,41.8,128.5,41.7,127.2z"/>
	<path class="st21" d="M42.1,131.3c2.2,0.6,4.4,1,6.4,2.3c2,1.2,4.3,1.4,6.4,0.7c3-1.1,6.1-1.2,9-2c0.9,1.4,0.3,2.8,0.4,4.2
		c-3.5,1.2-7,2.3-10.6,3.5c-0.7,0-1.5,0.1-2.2,0.1c-3.4-1.5-6.7-3-10.1-4.5C41.8,134.2,41.9,132.7,42.1,131.3z"/>
	<path class="st5" d="M63.4,97.3c0-0.3-0.1-0.7,0-1c0.6-2.6-0.5-3.7-3.1-3.3c3.2-1.6,6.4-3.2,9.5-4.9c0.2,0.1,0.4,0.3,0.6,0.4
		C68.1,91.4,65.7,94.4,63.4,97.3z"/>
	<path class="st1" d="M50.6,92.9c-2.1,0-4.2,0-6.4,0c0.2-1.7-1.7-3-1.1-4.8C45.4,90.1,48,91.6,50.6,92.9z"/>
	<path class="st4" d="M72.8,62.1c1,0.3,2,0.6,1.8,1.7c-0.2,1.1-0.2,2.6-1.7,2.9c-1.1,0.2-1-0.8-0.9-1.4
		C72.1,64.3,71.4,62.9,72.8,62.1z"/>
	<path class="st30" d="M48.9,69.7c3.9,0,7.6,0.3,11.3-0.5c-0.6,2.2-2.4,3.7-5,4.1C52.5,73.6,50.3,72.4,48.9,69.7z"/>
	<path class="st18" d="M50.3,53.6c0.7,0.3,1,0.8,0.9,1.5c-0.1,0.8-0.6,1.2-1.5,1.1c-0.5-0.1-1-0.5-0.7-0.8
		C49.4,54.8,49.4,53.8,50.3,53.6z"/>
	<path class="st19" d="M62.9,56.1c-0.2,0.7-0.6,1.2-1.4,1.2c-0.5,0-1-0.6-0.8-0.7c0.6-0.5,0.4-1.7,1.3-1.7
		C62.6,54.8,62.9,55.4,62.9,56.1z"/>
	<path class="st27" d="M52.1,97.9c1.2-0.5,0-2.6,1.7-2.6c2.3-0.1,4.6-0.1,6.9,0.1c0.8,0.1,0.7,1.2,0.6,1.8
		c-0.4,4.8-0.7,9.7-1.2,14.5c-0.2,2.2-4.3,4.3-6.4,3.7c-1.5-0.4-0.3-2.3-1.6-2.7c-1.3-3.6-0.4-7.3-0.6-11
		C51.3,100.4,51.2,99,52.1,97.9z"/>
	<path class="st10" d="M52.1,97.9c0,4.9-0.1,9.9-0.1,14.8c-1.8-0.5-3.6-1-5.4-1.4c-1-0.2-1.3-0.8-1.1-1.7c0.3-1.1,1.2-0.7,1.7-0.4
		c2.1,0.9,2.6,0.2,2.5-1.9c-0.2-2.4,0.1-4.8-0.1-7.2C49.4,98,50.1,97.3,52.1,97.9z"/>
	<path class="st38" d="M59.5,103.7c0.5,2.3,0,4.5-0.3,6.7c-0.1,0.8-4.8,2.6-5.2,2c-0.6-0.9-0.6-1.9,0.8-2.3c0.7-0.2,1.5-0.2,2-0.6
		c0.8-0.7,0.8-1.8,0.6-2.7c-0.2-0.9-1.3-0.5-1.8-0.3c-1.7,0.5-2-0.3-1.9-1.7c0.1-0.8,0-1.6,0-2.4c0-5,0-5,5-4.6
		c0.6,0,1.5-0.3,1.5,0.9c0,1.1-0.6,1.2-1.5,1.3c-1.1,0.1-2.6-0.9-2.8,1.5C55.6,104.9,57.6,104.1,59.5,103.7z"/>
</g>
</svg>
