<?xml version="1.0" encoding="utf-8"?>
<!-- Generator: Adobe Illustrator 16.0.0, SVG Export Plug-In . SVG Version: 6.00 Build 0)  -->
<!DOCTYPE svg PUBLIC "-//W3C//DTD SVG 1.1//EN" "http://www.w3.org/Graphics/SVG/1.1/DTD/svg11.dtd">
<svg version="1.1" id="justus_stays" xmlns="http://www.w3.org/2000/svg" xmlns:xlink="http://www.w3.org/1999/xlink" x="0px"
	 y="0px" width="150px" height="240px" viewBox="12 0 110 200" style="enable-background:new 0 0 110 200;" xml:space="preserve">
<style type="text/css">
<![CDATA[
	.st0{fill:#AA3448;}
	.st1{fill:#AA3449;}
	.st2{fill:#7E8B98;}
	.st3{fill:#7F8B98;}
	.st4{fill:#110E00;}
	.st5{fill:#E3BC00;}
	.st6{fill:#E4B797;}
	.st7{fill:#E4C049;}
	.st8{fill:#E6B488;}
	.st9{fill:#E8B68F;}
	.st10{fill:#E99E6A;}
	.st11{fill:#B26B7F;}
	.st12{fill:#EAAB7A;}
	.st13{fill:#ECAA7E;}
	.st14{fill:#EDAA7C;}
	.st15{fill:#515454;}
	.st16{fill:#212223;}
	.st17{fill:#232423;}
	.st18{fill:#252525;}
	.st19{fill:#261F19;}
	.st20{fill:#26211C;}
	.st21{fill:#262626;}
	.st22{fill:#F4F2EC;}
	.st23{fill:#5A5C5B;}
	.st24{fill:#F9D500;}
	.st25{fill:#F9F8F4;}
	.st26{fill:#C64A5C;}
	.st27{fill:#FAF4F0;}
	.st28{fill:#6D7D89;}
	.st29{fill:#6E7C8A;}
	.st30{fill:#6F7C89;}
	.st31{fill:#D04159;}
	.st32{fill:#D2415A;}
	.st33{fill:#D3425C;}
	.st34{fill:#050400;}
	.st35{fill:#D4425B;}
	.st36{fill:#D58867;}
	.st37{fill:#D6865E;}
	.st38{fill:#D68B61;}
	.st39{fill:#D88C65;}
	.st40{fill:#A6384F;}
	.st41{fill:#DA9269;}
	.st42{fill:#797D86;}
	.st43{fill:#DC8265;}
	#background_body{
		    transform-origin: 50% 50%;
    		animation-name: bodyIdle;
    		animation-duration: 1.9s;
    		animation-iteration-count: infinite;
    		animation-timing-function: cubic-bezier(0.42, 0, 0.57, 1.36);
	
	}
		/* Safari 4.0 - 8.0 */
	@-webkit-keyframes bodyIdle {
	    0%   {transform: rotate(0deg);}
	    50%  {transform: rotate(2deg);}
	    100% {transform: rotate(0deg);}
	}

	/* Standard syntax */
	@keyframes body-idle {
	    0%   {transform: rotate(0deg);}
	    50%  {transform: rotate(2deg);}
	    100% {transform: rotate(0deg);}
	}
	#brust{
		transform-origin: 50% 50%;
	  	animation-name: beat-brust;
    	animation-duration: 3s;
    	animation-iteration-count: infinite;
		animation-timing-function: cubic-bezier(0.42, 0, 0.57, 1.36);
	}
	/* Safari 4.0 - 8.0 */
	@-webkit-keyframes beat-brust {
	    0%   {transform: scale(0.95,0.95);}
	    50%  {transform: scale(1.008, 1.008);}
	    100% {transform: scale(0.95,0.95);}
	}

	/* Standard syntax */
	@keyframes beat-brust {
	    0%   {transform: scale(0.95,0.95);}
	    50%  {transform: scale(1.008, 1.008);}
	    100% {transform: scale(0.95,0.95);}
	}
]]>
</style>
<g id="background_body">
	<path class="st14" d="M72.2,64.2c0.2,0.9,0.399,1.8,0.6,2.7c0,8.4-4.5,13.8-13.6,16c-6.4,1.6-12.9,1.7-19.1-1.1
		c-0.3-0.1-0.9-1-1.1,0.1c-0.1,0.3,0.3,0.6,0.4,0.9c0.2,0.7-0.1,1.3-0.6,1.7c-2.3,0.1-2.9-2.2-4.4-3.2c-0.1-0.3-0.1-0.6,0.2-0.9
		c0.5-0.3,0.8-0.9,0.7-1.4c-1.6-7,0.2-13.9,0.6-20.8c-0.3-1,0.6-1.6,0.8-2.4c-0.5-4.4-0.4-8.9-0.4-13.3c0-1.3-0.1-2.7,0.9-3.8
		c2.1-0.2,3.1,1.3,3.9,2.9c1.9,4.5,2.2,4.6,7.7,2.8c0.3,0.1,0.6,0.2,0.8,0.5c0.7,3.2-0.3,5.7-3.1,7.4c-0.9,0.5-2.2,1-1.8,2.4
		c0.4,1.6,1.9,1.6,3,1.4c2.2-0.2,4.4-0.7,6.6-0.9c1.1-0.1,2-0.8,2.101-2.6c-2.8,3.3-6.4,3-9.9,2.9c-0.7,0-1.3-0.4-1.4-1.2
		c-0.1-0.8,0.4-1.3,1-1.6c4.8-0.5,3.8-4.4,4.6-7.3c0.5-2.1-1.1-0.8-1.6-1.3c-0.7-1.2-1.1-2.5-0.7-3.9c0.7-0.9,1.7-1.1,2.7-1.2
		c1.8,0,3.3-1.3,5.2-1.1c2,0,4,0,5.9,0c3.7-0.1,3.899-0.4,3.6-4c0.2-1.3,0-3,1.601-3.3c1.699-0.3,2.5,1.2,3.3,2.4
		c1.3,2,1.8,4.4,1.3,6.7c-0.5,3.4-0.3,6.9-0.7,10.3c0.5,2.7-1.1,5.4-0.3,8.2C72.2,59.8,71.6,62.1,72.2,64.2z"/>
	<path class="st17" d="M37.8,38.4c-1.1,5-0.5,10-0.2,15c0.1,1.2,0.6,2.4-0.4,3.5c-1.6,0-2.3-1.1-2.7-2.4c-0.3-1.9-0.2-3.7,0-5.6
		c0.6-2.2,1.7-4.4,0.9-6.8c-0.2-1.6-0.4-3.1-0.6-4.7c-0.9-5.5,0.5-9.8,5.9-12.1c1.8-0.8,1.3-2,1.2-3.3c-0.3-6.4,5.4-11.3,11.6-10.3
		c0.8,0.2,1.3,0.4,2.2,0.8c1.399,0.7,2.7,1.7,2.8,3.5c0,1-0.7,1.6-1.6,1.9c-1.601,0.6-2.5,0.4-4.3-1.3c0.7-1.1,2.2,0.3,3.1-1.1
		c-1.4-1.6-3-2.5-5-0.9c-1,0.8-1.8,1.7-1.4,3.1c0.4,1.4,1.3,1.9,2.8,1.9c1.1,0,2.2-0.2,3.3-0.3c5.8-0.7,10.8,0.8,15,5.1
		c1.899,2,3.6,4.2,6,5.7c2.5,1.6,2.5,4.5,2.199,7.3c-0.399,3.9-2.3,7.2-4.199,10.5c0.1,1.3-0.7,2.9-0.5,4.4c0,1.4,0.1,2.8-0.4,4.2
		c-0.5,1-1.3,1.8-2.6,1.8C69,57.5,70.2,56,70.3,54.9c0.101-1.6,0.4-3.3,0.601-4.9c0.3-3.2,0.3-6.3,0.8-9.5c0.399-2.6,0-5.1-0.9-7.5
		c-1-2.6-2.5-3.3-5.2-2.6c-4.1,1.1-7.8,3.4-12.3,3.1c-2-0.1-4-0.4-5.9-1.2c-4.5-1.9-6.8-0.8-8.5,3.8C38.7,36.9,38.7,37.8,37.8,38.4z
		"/>
	<g id="capa">
		<path class="st1" d="M96.17,159.856c-9.813-1.664-19.397,1.359-29.096,1.143c-1.398-1.454-1.142-3.222-1.142-4.885
			c-0.114-3.948,0.343-7.897-1.368-11.638c-0.342-2.184,0.342-4.261-0.114-6.443c0.571-1.87,1.0086-3.741,1.938-5.508
			c1.484-2.286,1.369-4.78,1.142-7.171c-0.456-4.469,1.256-7.482,6.049-8.832c0.227-0.104,0.454-0.209,0.684-0.313
			c5.362-2.39,5.362-2.39,8.443,2.183c0.571,0.831,1.0086,1.766,1.825,2.183c6.505,3.532,5.363,9.145,4.793,14.549
			c-0.229,1.974-0.343,3.947,0.228,5.819c0.456,1.661-0.685,2.805-1.483,4.156c-1.825,3.533,0.229,6.755,4.564,7.066
			c1.711,0.104,3.65-0.624,4.906,1.039C98.337,155.699,98.224,157.985,96.17,159.856z"/>
		<path class="st0" d="M22.4,127.5c2.9-2,5.2-4.5,6.1-8.1c4.1-1.7,9.3,1.6,9.6,6c0.2,3.1-0.6,6.3,1.6,9c0.5,1.899,0.6,3.899,1.3,5.8
			c-0.1,1.8-0.1,3.7-0.2,5.5c-0.2,2.1-0.6,4.1-0.7,6.2c0,1.199-0.2,2.399-1.3,3.1c-4.1,0.3-7.9,1.6-11.6,3.4
			c-1.7-0.101-1.8-1.601-2.2-2.801c-0.6-2.1-1-4.199-1.7-6.3c-0.5-1.3-1.3-2.3-1.2-3.8c0.8-1.7,0.2-3.5,0.1-5.2
			C21.8,136,21.2,131.7,22.4,127.5z"/>
		<path class="st35" d="M95.2,161.2c0.399-2,1.3-4,0.7-6.101c4.899-1.199,5.699-4.699,5.1-9.1c0-0.3,0.2-0.6,0.4-0.9
			c2.8-3.699,1.3-8.399,2.6-12.399c2.3,10.2,2.6,20.3,0.3,30.5c-1.3,6.5-5.8,9.7-12.2,11.399C93,169.9,95.5,165.8,95.2,161.2z"/>
		<path class="st33" d="M23.9,149c1.6,3,1,6.7,3.2,9.5c-0.6,4.3,2.1,7.5,3.5,11.2c0.4,1.1,1.4,2.1,1.4,3.3
			c-4.7,0.4-10.2-2.5-12.2-6.5c-1.6-3.2-2.7-6.6-3.5-10.1c-0.6-1.301,0.2-2,1.2-2.2C20.6,153.5,22.3,151.3,23.9,149z"/>
	</g>
	<path class="st31" d="M93.4,90.4c-3.801,4.8-9.2,6.7-14.601,8.8c-3.899,1.3-7.899,1.2-11.8,1.2c-1.6-2-0.9-4.4-0.8-6.6
		c0.2-1.4,1.1-2.4,2.2-3.3c3.3-2.8,5.3-6.5,7.699-9.9c0.101-0.1,0.301-0.2,0.4-0.3c1.6-1.3,3.6-4.2,5.5-1.6c1.3,1.7,2.8,2.3,4.3,3.3
		c1.601,1,2.8,2.5,5.4,1.9c1.6-0.4,3.399,1.6,2.7,4C94.1,88.8,93.7,89.6,93.4,90.4z"/>
	<path class="st32" d="M40.1,100.5c-3.7-2.3-7.4-4.6-11.3-6c-2.7-1.3-4.9-3.3-7.4-4.7c-0.6-0.9-1.3-1.7-1.9-2.6
		c-0.3-2.7,0.4-4,3.7-3.7c2.5,0.2,4.8-2,6.5-3.5c3.2-2.8,2.8-3.2,5.3,0.5c0,0.2,0,0.4,0.1,0.6c2.2,2.7,4.1,5.7,6.5,8.3
		c1,1.1,2.7,2.1,2,4.1c-2,0.7-2.6,2.1-2.3,4.1C41.2,98.5,41.8,99.9,40.1,100.5z"/>
	<path class="st38" d="M39.3,83c-1.1-0.8-2.2-1.4-2.6-3.8c7.2,4,14.6,4.9,22.1,2.9c7.8-2,13.5-6.4,14.101-15.3
		c0.5,2.2,1,4.4,1.3,6.6c1,3.8-0.7,6.5-3.5,8.6c-3.5,2.6-7.4,4.2-11.801,5c-4.8,0.9-9.3,0.4-13.8-0.7C43,85.8,40.6,85.3,39.3,83z"/>
	<path class="st10" d="M39.3,83c4.3,2.7,9.3,3.9,14,3.8c7.601-0.2,15.101-1.9,20.2-8.6c1.2-1.6,0-3.3,0.9-4.7c1,2.2,0.699,4.8,2,7
		v0.1C71.3,87.3,64.4,90.8,56.3,92c-5.2,0.7-10-0.3-14.4-3.3c-1.3-1-3.4-1.8-3.3-4.2C38.8,83.9,39,83.5,39.3,83z"/>
	<path class="st9" d="M70.9,58.4c0.699-0.6,1.3-1.1,2-1.7c0.399-0.2,0.8-0.4,1.199-0.5c1.7-0.5,2.7-1.7,2.301-3.4
		c-0.5-2.3-2.2-0.3-3.2-0.7c-0.4-1.6-0.2-3,1.2-4.1c2.699-0.3,4.5,0.9,5.199,3.5c0.7,2.9-1,6.6-4.3,7.8c-2.6,1-3.399,2.4-3,4.9
		C71.4,62.3,71.2,60.3,70.9,58.4z"/>
	<path class="st40" d="M50.8,156.4c-0.8-2.2,1.6-3.801,1.3-6c1-0.801,1.9-0.9,2.8,0.1c0.7,2.7,3.7,4.7,2.5,8
		C55.2,157.8,53,157.1,50.8,156.4z"/>
	<path class="st6" d="M35.2,54.7c0.5,0.8,1,1.8,2,2.1c-0.4,0.4-0.9,0.9-1.3,1.3c-5.9-3.9-6.3-7.3-1.3-12.1c1.4-1.3,0.2-2.8,0.8-4.1
		c1,2.2,0.7,4.4-0.1,6.6C34.1,50.6,33.3,52.6,35.2,54.7z"/>
	<path class="st8" d="M37.8,38.4c-0.1-2,0.6-3.7,1.6-5.4c1.7-2.8,4.6-3.7,7.5-2.1c4.6,2.6,9.2,2,13.9,0.3c0.9-0.3,1.8-0.9,2.7-1.2
		c4.6-1.7,7.4-0.3,8.4,4.5c1.1,5.3,0,10.4-1,15.5c-0.4-3.2-0.101-6.5,0.3-9.7c0.5-3.9-0.4-7.1-3.5-9.6c-1.4,0.8-0.2,2.6-1.601,3.2
		c-2.399,1.2-4.8,2.6-7.6,2.4c-1.4-0.1-2.4,0.4-2.1,2.1c-1.9-0.8-3,2.2-5,1c-2.6-1.9-6-1.8-8.7-3.7c-0.5-0.4-1.3-0.1-1.7,0.6
		c-0.5,0.9,0,1.3,0.8,1.9c0.8,0.5,1.9,0.6,2.4,1.7c-0.4,1.8-2,1.8-3.3,2.1C40.3,40.4,38.1,40.1,37.8,38.4z"/>
	<path class="st42" d="M38.6,84.4c5.8,6.9,15.5,8.8,24.6,4.9c4.899-2.1,9.2-5.2,13.1-8.7c-0.3,3.1-2.7,4.9-4.2,7.2
		C70.7,89.9,68.7,91.3,66.9,93.3c-0.7,0.6-1.601,0.9-2.5,0.9c-6.2,0.1-12.3,0.2-18.5,0c-1,0-2-0.2-2.7-1.1c-2.8-3.2-5.5-6.4-7.9-9.9
		c-0.5-0.7-0.7-1.3-0.7-2.1C36.6,81.3,37.1,83.5,38.6,84.4z"/>
	<path class="st36" d="M52,68.1c-2.8-0.4-5.5-1.3-7.5-3.3c-1-1-1.7-2.3-3.1-3c-1.1-0.6-1-1.7-0.2-2.6c0.7-0.8,1.7-1.7,2.5-0.6
		c1.3,1.9,3.2,1.3,4.9,1.4c4.6-0.2,9.4,0,13.1-3.6c0.5-0.4,1-0.4,1.3-0.1c0.6,0.4,0.899,1,0.8,1.7C63.5,61.9,55.9,68.2,52,68.1z"/>
	<path class="st37" d="M49.4,44c0.8-0.4,0.4-2.4,1.9-1.8c1.4,0.6,0.6,1.9,0.3,2.9c-1.1,3.7-1.1,3.7,0.7,6.1c-2,1.4-5,0.6-6.8,3
		c3.2,1.4,6.1-0.2,9-0.5c0.9-0.1,0.8-1.2,0.4-2c-0.2-0.5-0.3-1.2,0.4-1.4c0.7-0.2,1,0.4,1.3,0.9c1,1.8,1.4,3.7-1,4.3
		c-3,0.8-6.1,1-9.1,1.3c-1.4,0.2-2.3-0.6-2.8-1.9c-0.6-1.6,0.6-2.5,1.3-2.9c3.3-1.4,3.9-4.2,4.1-7.3c-0.2-0.1-0.2-0.3-0.2-0.4
		C49.3,44.1,49.4,44,49.4,44z"/>
	<path class="st19" d="M56.4,38.5c-0.9-0.6-1.601-1.3-1-2.4c0.6-1.4,1.6,0,2.1-0.2c1.3-0.7,3.2,0.1,4.6-1C63.3,34,64.7,33.6,66.2,34
		c0.899,0.9,1.7,1.8,1,3.2c-0.601,1.3-1.7,1.6-3,1.3C61.3,38.6,58.9,38.5,56.4,38.5z"/>
	<path class="st20" d="M43.9,39.9c-1.4-0.8-3.8-0.1-4.2-2.6c-0.2-1,0.1-1.8,0.9-2.3c2-1.2,3.2,0.7,4.8,1.1c1.3,0.3,2.8,1.3,4.7,1
		c2.2-0.6,1.3,1.3,1.3,2.3c-0.9,0.2-1.8,0.4-2.7,0.6c-0.8,0.6-1.7,0.8-2.7,0.8C45.2,40.7,44.5,40.5,43.9,39.9z"/>
	<path class="st25" d="M43.9,39.9c0.7,0,1.4,0.1,2.1,0.1c2,0.9,3.9,1.8,2.5,4.6c-4.2,3.1-6.8,2.2-7.8-2.6
		C41.3,40.4,43,40.8,43.9,39.9z"/>
	<path class="st22" d="M60.5,46.7c-2.2,0.2-3.8-0.9-4-3c-0.2-2.4,1.8-2.4,3.5-2.3c1.8,0.1,4.3-0.4,4.5,2.2
		C64.6,45.7,62.8,46.9,60.5,46.7z"/>
	<path class="st43" d="M51.8,70.9c0.2,0,0.6-0.1,1.1,0c1,0.2,2.7-1.6,2.8,0.3c0.1,1.3-2,1.7-3.5,1.7c-0.3,0-0.7,0-1-0.2
		c-0.8-0.5-2.3-0.4-1.9-1.7C49.6,69.8,50.7,70.7,51.8,70.9z"/>
	<path class="st8" d="M48.6,44.6c1-2.5-1.4-3.2-2.5-4.6c0.9,0,1.8,0,2.6,0c0.2,1.3,0.5,2.7,0.7,4c0,0.2,0,0.4,0,0.6
		C49.1,44.6,48.9,44.6,48.6,44.6z"/>
	<path class="st26" d="M22.4,145.6c-1.2-0.6-1.7-1.8-2.5-2.699c1.6-1.4,1.1-3.2,1.2-4.9c0.1-2.7,0-5.3,0-8c0-1-0.4-2.4,1.3-2.5
		c0,5.6-0.3,11.2,1.1,16.7C23.9,145.6,22.6,145.1,22.4,145.6z"/>
	<path class="st11" d="M21.1,89.7c3,0.7,5.2,2.7,7.4,4.7C25.3,94.1,23.3,91.8,21.1,89.7z"/>
	<path class="st39" d="M73.1,52.1c1-0.6,1.7-2.3,3.301-1.1c1.3,1.2,1.399,2.8,0.5,4.2c-0.9,1.4-2,2.8-4,1.3
		C73,55.1,73,53.6,73.1,52.1z"/>
	<path class="st41" d="M35.2,54.7c-2.8-1.1-2.8-3.6,0.1-6.1C35.2,50.6,35.2,52.7,35.2,54.7z"/>
	<path class="st27" d="M59.8,60.7c-3.3,5.8-9.8,7.2-13.5,3.2c-0.4-0.5-1.1-1-0.9-1.7c0.3-0.8,1.1-0.6,1.7-0.6c2.1,0,4.2,0,6.3-0.1
		S57.5,61,59.8,60.7z"/>
	<path class="st15" d="M47.3,43.3c-0.3,0.9-0.8,1.3-1.9,1.4c-0.6,0-1.3-0.2-1.1-0.9c0.3-0.7,1-1.3,1.7-1.8
		C46.7,41.8,47.1,42.6,47.3,43.3z"/>
	<path class="st23" d="M62.1,44.2C62,44.9,61.4,45.5,60.4,45.5c-0.5,0-1.3-0.5-1.2-0.8c0.7-0.7,0.5-2.3,1.899-2.3
		C61.8,42.4,62.2,43.1,62.1,44.2z"/>
</g>
<g id="legs">
	<g id="leg_left">
		<path class="st28" d="M68.439,145.301c1.079,0.732,0.741,1.968,0.731,2.952c-0.06,1.878-0.08,3.849,0.214,5.79
			c-2.168,3.552-2.459,7.164-0.385,10.952c-3.032,0.548-6.063,1.096-9.15,1.014c-0.108-1.261-0.086-2.469-0.194-3.729
			c-1.946-5.259-5.44-10.066-5.381-15.976C58.917,144.188,63.751,145.039,68.439,145.301z"/>
		<path class="st18" d="M70.994,177.424c0.206,2.743,0.516,5.225,2.688,7.228c-4.682,2.023-9.088,3.928-13.586,5.872
			c-0.027-0.316-0.198-0.459-0.106-0.499c0.34-0.475,0.548-1,0.967-1.29c4.298-3.164,3.892-7.129,2.303-11.362
			c-1.364-3.66-2.321-7.386-3.41-11.164c2.898-1.361,5.93-1.909,9.15-1.014C70.482,168.93,70.731,173.288,70.994,177.424z"/>
	</g>
	<g id="leg_right">
		<path class="st29" d="M38.7,155.1c1.1-3.1,0.2-6.399,1.3-9.399c1.2-0.9,2.4-0.101,3.4,0.399c3,1.3,6.6,1.801,9.1,4.4
			c0.7,2.3-0.7,4.1-1.7,6c-2.1,3.5-2.9,7.4-3.4,11.4c-1.4,0.699-2.6-0.101-3.8-0.5c-2.3-0.7-3.3,0.199-3.3,2.6c0,3.3,0.1,6.7-0.1,10
			c-0.1,1.3,0.5,3-1.6,3.4c0-4,0-8-0.1-12c-0.1-2.9,0.4-5.601,1.4-8.301C40.9,160.3,40.5,157.5,38.7,155.1z"/>
		<path class="st21" d="M38.6,183.3c1.3-2.7,0.4-5.6,0.6-8.5c0.1-1.8,0-3.6,0-5.399c0-4,0.5-4.301,4.2-3.2c1.4,0.399,2.7,1,4.1,1.6
			c1.7,3.3,0.1,6.5-0.5,9.7c-0.6,3.3-2.4,6.4-0.8,9.8c0.5,1.2-0.5,1.2-1.3,1.3c-4.4,0-8.8,0-13.7,0
			C33.6,186.1,37.3,186.4,38.6,183.3z"/>
	</g>
</g>
<g id="one">
	<g id="bauch">
		<path class="st7" d="M39.3,135.1c4.2,0.7,8.3,0.601,12.3-1c2-0.8,4.3-0.8,5.8,0.2c3.899,2.601,8,1,11.899,1.4
			c-0.7,1.399,0.3,3.5-1.7,4.399c-0.1,0.2-0.199,0.5-0.3,0.601c-6.399,2.3-12.7,6-19.8,2.399c-2.3-1.1-5.1-0.8-7-3
			C38.4,138.9,39.7,136.8,39.3,135.1z"/>
		<path class="st16" d="M40.5,140.1c3.1,0.9,6.2,1.4,9.2,2.9c2.4,1.2,5.3,1.4,7.8,0.2c3.3-1.3,6.8-2.101,10.1-3.101
			c1.4,1.7,0.301,3.601,0.5,5.5c-4.399,1.7-8.899,3.301-13.3,5c-0.9,0-1.9-0.1-2.8-0.1c-4-1.6-8.1-3.2-12.1-4.8
			C39.9,143.7,39.4,141.8,40.5,140.1z"/>
	</g>
	<g id="brust">
		<path class="st3" d="M9,144.4c-2.1-3.2-2.4-6.9-2.5-10.601c-0.1-2.3-0.9-5.1-0.5-6.6c1.6-7.2-1.4-15.2,3.6-21.3
			c2.5-3.101,4.4-5.9,4.3-10.1c0-2.4,1.8-4.3,3.7-5.8c0.9-0.7,1.9-1.3,1.6-2.6c1.3,0,1.6,1.6,2.5,2.2c2.1,1.9,4.2,4,7.2,4.4
			c4.2,1.8,8.6,3.2,11.3,7.101c1.1,3.5,2.4,6.899,1.3,10.699c-6.8,4.101-10.4,4.9-17.6,0.9c0.9,1.2,0.8,2.3,0.4,3.5
			c-1.3,3.9-3.7,6.9-7.4,8.6c-2,0.9-2.8,2-2,4.101c1.3,3.2,1.6,6.7,3.2,10.1c1.7-3.2,0.5-6.1-0.1-8.899
			c-0.4-1.9-0.3-3.301,1.4-4.301c2.6-1.3,4.3-3.8,5.8-6.3c1.3-2.3,2.2-2.1,3.6,0.3c-0.6,4.2-3.4,6.7-6.5,9c-1.2,3.5-0.3,7-0.6,10.5
			c-0.1,1.801-0.2,3.601-2.1,4.5C16.3,144.3,12.8,145.8,9,144.4z"/>
		<path class="st2" d="M93.4,90.4c2.5,2.4,3.5,5.4,3.199,8.8c-0.1,1.1-0.1,2.1,1,3c5.101,4,5.9,9.7,6,15.6
			c0,2.601-0.399,5.101,0.801,7.8c0.899,2-0.801,4.601-0.301,7.101c-0.399,1.7,0.101,3.399,0.2,5.2c0.2,2.8-0.2,5.5-2.7,7.399
			c-3.8,0-7.5-0.6-11.3-1.1c-1.3-1-1-2.3-0.2-3.2c3-3.8,3.101-8.6,4.7-12.8c0.7-1.7,0.4-2.9-1.399-3.4c-4.4-1.2-6.101-5-8-8.6
			C84.3,114.1,84.9,112.1,86.1,110.1c0.301-0.3-0.5-0.5-0.1-0.3c0.1,0,0.1,0.2-0.1,0.3C79.7,116.4,72,116.9,65.1,111.6
			c-1-3.899,0.7-7.399,1.3-11C67.1,99.9,67.9,99.7,68.7,99.7c9.3,0.3,17-3.7,24.1-9.1C92.9,90.4,93.1,90.4,93.4,90.4z"/>
		<path class="st13" d="M23.9,149c-0.3,3.2-1.9,5.1-5.2,5.5c-1.1,0.1-2.1,0.6-2.4,1.9c-0.8-0.5-0.4-1.9-2.2-1.7
			c-4.9,0.5-5.3,0-5.2-4.9c0-1.8,0.1-3.6,0.1-5.3c3.6-0.5,7.3-1,10.9-1.3c1.6,0.2,1.9,1.6,2.5,2.7C22.9,146.8,23.4,147.9,23.9,149z"
			/>
		<path class="st30" d="M39.3,135.1c-2.6-1.899-1.9-4.699-1.9-7.3c-0.1-5.5-3.1-8.5-8.8-8.399c-0.4-1.601-1.4-1.9-2-0.301
			c-1.3,3.4-4,5.601-6.7,7.7c-1.1,0.8-1,1-0.8,2.101c0.9,3.8,2.2,7.8-0.5,11.699c-2.5-4.399-3-9.5-4.7-14.1c-0.6-1.8,1.3-2,2.3-2.3
			c3.6-1.4,5.6-4.101,7.5-7.4c1.8-3.1-0.8-4.3-2.1-7.399c3,2.1,5.1,3.899,7.9,4.399c2.9,0.601,5.5,0.5,8-0.899
			c1.2-0.7,2.5-1.101,3.8-1c1.9,1.3,1.6,3.3,1.6,5.199c0,2.2,1.1,3.301,3.1,4.101c5.1,2.1,10.2,2,15.3,0c1.7-0.7,2.601-1.3,2.7-3.3
			c0.2-2.101,0.1-4.301,1.7-5.9c2.8,0,5,1.6,7.7,2.2c6.1,1.3,9.6-2,13-6c0.199-0.2,0.399-0.4,0.699-0.7c1,0.9,0.301,1.3-0.1,2.3
			c-2.4,4.601,0.5,11.9,5.4,13.7c2.899,1,4.699,1.4,3.1,5.7c-1.8,4.8-3.1,9.8-5.7,14.399l-0.1,0.301l-0.3-0.101
			c-1.601-1.6-1.7-3.3-1.301-5.5c0.601-3.1,0.5-6.2,0.7-9.3c0.101-1.1-0.8-1.3-1.6-2c-2.601-1.7-4.5-4-5.601-6.9
			c-0.5-1.399-1.1-2.5-2.899-1c-1.101,0.9-2.8,1.301-4.2,1.801c-2.4,1-3.7,2.399-3.7,5.3c0,3.2,1.2,6.8-1.3,9.6
			c-3.6,1.101-7.1,2-10.899,0c-3-1.6-6.3-0.899-9.5,0.101C45.7,136.8,42.4,137,39.3,135.1z"/>
		<path class="st12" d="M89.3,143.7c0.2,0,0.3-0.101,0.4-0.2c3.899,0.3,7.899-0.2,11.6,1.6c0.9,2.2,0.7,4.601,0.4,6.9
			c-0.4,3.7-3.8,2.4-5.9,3.1c-0.899-1.3-1.8,0.101-2.7,0c-7-0.6-8.699-4.399-4.6-10.3C88.8,144.4,89.1,144,89.3,143.7z"/>
	</g>
	<g id="logo">
		<path class="st5" d="M65.7,112c-0.2,1.3-0.7,2.7-0.601,4c0.601,4.4-1.8,5.6-5.5,6.9c-5.8,2-10.7,0.199-16-1.301
			c-1.4-0.399-1.3-1.399-1.6-2.6c-0.2-2.3,0-4.7-0.8-7c0.6-3.9-1.1-7.6-1.2-11.3c0.9-1.3,0.1-2.6-0.1-3.8c-0.4-2.7,0.5-3.9,3.3-3.6
			c7.9,0.1,15.8,0.2,23.7,0.2c0,2.4,0,4.8,0,7.3C67,104.4,65.1,108,65.7,112z"/>
		<path class="st24" d="M52.6,99.2c1.3-0.6,0-3.3,2.1-3.3c2.899-0.1,5.8-0.1,8.7,0.2c1.1,0.1,0.8,1.3,0.8,2.3
			c-0.5,6.1-0.9,12.2-1.3,18.3c-0.3,2.7-5.4,5.399-8.1,4.7c-1.9-0.5-0.4-2.9-2.1-3.4c-1.6-4.5-0.5-9.3-0.8-13.9
			C51.6,102.4,51.3,100.7,52.6,99.2z"/>
		<path class="st4" d="M52.6,99.2c0,6.2-0.1,12.5-0.1,18.7c-2.3-0.601-4.5-1.2-6.8-1.7c-1.3-0.3-1.7-1-1.4-2.2
			c0.3-1.4,1.3-0.9,2.2-0.6c2.6,1.199,3.3,0.199,3.1-2.4c-0.2-3,0.1-6.1-0.1-9.1C49.2,99.3,50.1,98.5,52.6,99.2z"/>
		<path class="st34" d="M62,106.8c0.5,2.7-0.1,5.3-0.4,8c-0.1,1.101-5.6,3.5-6.5,2.9c-0.3-0.2-0.4-0.7-0.5-1.101
			c-0.1-0.699,0-1.399,0.8-1.699c0.7-0.301,1.3-0.5,2.3-0.601c2.1-0.5,1.7-2.3,1.6-3.5c-0.1-1.6-1.7-0.8-2.399-0.6
			c-1.9,0.5-2.4-0.2-2.3-2c0.1-1.101,0-2.2,0-3.4c0-6,0-6.1,6.1-5.8c0.899,0,2.2-0.5,2.2,1.2c0,1.8-1.2,1.3-2.301,1.3
			c-1.399,0.1-3.199-0.601-3.1,2.1C57.5,107.2,57.3,107.2,62,106.8z"/>
	</g>
</g>
</svg>
