<?xml version="1.0" encoding="utf-8"?>
<!-- Generator: Adobe Illustrator 16.0.0, SVG Export Plug-In . SVG Version: 6.00 Build 0)  -->
<!DOCTYPE svg PUBLIC "-//W3C//DTD SVG 1.1//EN" "http://www.w3.org/Graphics/SVG/1.1/DTD/svg11.dtd">
<svg version="1.1" id="Ebene_1" xmlns="http://www.w3.org/2000/svg" xmlns:xlink="http://www.w3.org/1999/xlink" x="0px" y="0px"
	 width="110px" height="200px" viewBox="0 0 110 200" style="enable-background:new 0 0 110 200;" xml:space="preserve">
<style type="text/css">
<![CDATA[
	.st0{fill:#AA3449;}
	.st1{fill:#7E8B98;}
	.st2{fill:#7F8B98;}
	.st3{fill:#110E00;}
	.st4{fill:#E3BB9D;}
	.st5{fill:#E3BC00;}
	.st6{fill:#E4C243;}
	.st7{fill:#E79865;}
	.st8{fill:#E79F6F;}
	.st9{fill:#E7C677;}
	.st10{fill:#4F504E;}
	.st11{fill:#EAEAEA;}
	.st12{fill:#ECA778;}
	.st13{fill:#EDA97D;}
	.st14{fill:#EDAB7C;}
	.st15{fill:#212223;}
	.st16{fill:#232323;}
	.st17{fill:#252525;}
	.st18{fill:#F3F1EB;}
	.st19{fill:#261E1A;}
	.st20{fill:#F5F2ED;}
	.st21{fill:#29221A;}
	.st22{fill:#F9D500;}
	.st23{fill:#FDFBF8;}
	.st24{fill:#606261;}
	.st25{fill:#363636;}
	.st26{fill:#6D7D8A;}
	.st27{fill:#6E7C89;}
	.st28{fill:#D13F58;}
	.st29{fill:#D18B5A;}
	.st30{fill:#D2415A;}
	.st31{fill:#D24259;}
	.st32{fill:#D3425B;}
	.st33{fill:#D3885F;}
	.st34{fill:#050400;}
	.st35{fill:#D58B67;}
	.st36{fill:#D68B62;}
	.st37{fill:#D9B895;}
	.st38{fill:#747C85;}
	.st39{fill:#A73850;}
	.st40{fill:#DC8561;}
]]>
</style>
<g id="two">
	<path class="st14" d="M42.8,77.1c0.8-4.7,1-9.4,2.3-14c0.8-1.2,0.5-2.5,0.7-3.8c0.5-4.5,0.2-8.9,0.7-13.3c1.8-1.8,3-1.2,4,0.9
		c0.4,1.4,1.1,2.6,2.3,3.4c1.2,0.7,2.1,0.1,3-0.4c1.7-1,0.6-2.5,0.5-3.8c0.1-0.3,0.1-0.5,0.3-0.8c0.6-0.6,1.6-0.3,2.1-1.2
		c-3.1-0.5-5.8-1.9-8.3-3.5c0.5-3.9,1.2-4.3,5.4-3.2c0.7,0.2,1.4,0.3,2.1,0.3c4.1,1.4,8,0.8,12-0.8c0.8-0.3,1.7-0.5,2.7-0.7
		c4.3-0.5,6.5,1.1,7.4,5.4c0.7,3.5-0.2,6.9-0.8,10.3c-0.5,2.6-1.1,5.2-1.7,7.8c-0.2,0.9-0.6,2,1.1,1.6c2,0.1,3.5-0.3,3.2-3.1
		c-1.3,0.6-0.7,2.3-2.1,2.7c-1.6-1.6-0.9-3.6-0.8-5.6c0.3-0.8,0.5-1.9,1.7-1.8c2.2,0.7,4.1,1.4,4.3,4.3c0.3,3.3-1.7,5.8-4.1,6.5
		c-4.1,1-3.2,3.3-2.7,5.8c0.1,8.2-3.8,13-12.1,14.7c-7.7,1.6-14.9,0.8-21.6-3.4c-0.5-0.1-1-0.3-1.4-0.7
		C42.1,79.3,41.7,78.3,42.8,77.1z"/>
	<path class="st1" d="M96,93.4c2.5,2.1,2.7,4.9,2.5,7.8c-0.1,0.9-0.5,1.8,0.5,2.5c5.4,4.4,5.3,10.4,4.9,16.5
		c-0.1,1.6-0.9,3.4,0.5,4.9c0.3,0.3,0.3,1.2,0.1,1.4c-1.9,2.2-0.7,4.6-0.7,6.9c-0.3,2.3,0.4,4.7-0.8,7c-0.5,1.1-1,2.2-2.3,2.6
		c-3.7,0-7.2-0.8-10.6-2.2c-1.2-1.3-1.2-3-1.2-4.6c0-3.6,0-7.1-0.1-10.6c1.3-2.5,2.8-0.4,4.1,0c1.4,0.5,0.8,1.5,0.4,2.5
		c-1,2.6-1.3,5.3-1,8.1c0.1-2.8,2-5,3-7.5c1.4-3.2,1.4-3.3-1.6-4.9c-2.9-1.6-4.7-4.1-6-7.1c-1-2.4-0.2-4.5,1.5-6.9
		c-6.1,5.5-15.3,6.3-20.8,2.2c-0.7-3.5,0.1-6.9,0.8-10.2c0.8-0.9,1.8-1,2.7-1c8.2,0.6,15.2-2.9,22-6.7C94.7,93.8,95.3,93.3,96,93.4z
		"/>
	<path class="st2" d="M22.9,119.6c-6.2-4.4-11.6-9.3-13.7-17C8.1,98.3,8.6,94.1,9,89.9c2.4-1.9,5.1-2.8,8.2-1.9
		c0.2,0.5,0.4,0.9,0.7,1.4c0.6,1,0.5,3.2,1.6,2.7c1.6-0.7,4.2-0.1,4.7-3c0.3-1.9,1.7-3.6,3.5-4.5c1.4-0.7,1.8-1.8,2.1-3.1
		c0.2,0.1,0.5,0.1,0.5,0.3C31.7,89.7,38,93.4,44,97.5c0.8,0.5,1.8,1,2.3,1.9c0.5,2.7,1,5.3,1.2,8c-0.3,1.3-1.4,2.1-2.6,2.2
		c-5.4,0.5-10.6,0.7-14.7-3.8c-1-1.1-1.9-1.6-3.4-1c-1.6,0.8-2.6-0.4-3.6-1.5c0.4,1.7,0.7,3.5,1.1,5.3c0.4,1.8,1.2,2.3,2.6,0.8
		c0.2-0.2,0.4-0.5,0.6-0.7c0.8-0.8,1.5-2.4,2.9-1.6c1.4,0.8,1.4,2.3,0.9,3.8c-0.3,0.8-1,1.4-1.5,2.1
		C27.1,114.9,24.4,116.6,22.9,119.6z"/>
	<path class="st0" d="M89.3,124.9c1,2.5,0.5,5.2,0.5,7.8c0,2.7-0.2,5.5,0.7,8.2c0.1,1.5-1.1,2.3-1.7,3.4c-1.7,2.8-0.5,5.5,2.8,6.2
		c1.6,0.3,3.2,0.3,4.7,0.9c1.5,0.7,2.1,1.5,0.5,2.7c-0.5,0.4-0.8,1.2-1.4,1.5c-5.8-1.1-11.5,0.1-17.2,0.7c-6.3,0.4-6.3,0.4-6.4-5.7
		c-0.1-2.8-1.5-5.5-1.1-8.4c0-1.6-0.1-3.2,0.1-4.7c0.3-1.3,0.5-2.7,0.8-4c1-2.1,1.6-4.3,1.6-6.7c0.1-5,3.8-9.1,8.8-9.8
		c0.8-0.1,1.6-0.1,1.9,0.5C85.2,120.4,88,122.1,89.3,124.9z"/>
	<path class="st0" d="M29.2,112.6c0.4-0.6,0.8-1.2,1.2-1.9c1.4-0.6,2.1,0.4,2.8,1.2c1.9,2.1,4.1,3.6,6.6,4.9c4.3,2.2,6,5.8,5,10.6
		c-0.3,1.4,0.1,2.5,0.8,3.7c0.5,1.4,0.3,2.9,0.4,4.3c0.4,2.1-0.7,3.9-0.6,6c-0.3,2.8,0.9,5.8-0.9,8.5c-3.6,0.1-7,1.1-10.4,2.5
		c-2.3,0.4-2.3-1.6-2.7-2.8c-2-6.1-2.7-12.5-3.1-18.9c-0.3-4.7-0.1-9.3-0.1-14C28.3,115.3,28.8,114,29.2,112.6z"/>
	<path class="st16" d="M78.9,61.3c-0.7,0.7-1.2,2-2.3,1.4c-1.1-0.5-0.3-1.6-0.1-2.5c1.1-5.7,2.8-11.3,2.7-17.1
		c-0.1-5.8-3-7.9-8.5-5.8c-4.4,1.7-8.7,2.5-13.3,0.7c-0.8-0.3-1.5-0.5-2.3-0.8c-2.2-0.9-4.1-0.1-5.3,2.1c-1,2-1.2,4.3-2.5,6
		c-0.8,4-0.5,8-0.4,12.1c0,1,0.8,2.4-1.1,2.6c-1.1-0.3-1.6-1.1-1.9-2.1c-0.4-1.9,0-3.6,0.4-5.4c0.1-0.7,0.3-1.2,0.9-1.7
		c0.9-2.2,0.1-4.4-0.2-6.6c-0.8-5.6-0.1-10.5,6-12.8c1.6-0.5,0.9-1.9,1-2.8c0.1-4.8,3.9-8.9,8.6-9.1c1.6-0.1,3,0.2,4.2,1.3
		c0.2,0.8-0.1,1.2-0.8,1.5c-0.2,0.1-0.4,0.1-0.6,0.1c-1.5,0.1-3.5-0.1-3.4,2c0.1,1.9,2.1,1.4,3.4,1.6c1.9,0.3,3.8,0.3,5.7,0.7
		c4.7,1.1,8.1,3.9,10.8,7.8c0.1,0.3,0.3,0.5,0.5,0.8c2.1,1.5,4.4,3,4.5,6.1c0.1,3.8-1.2,7.1-3.2,10.2c-0.3,0.5-0.6,1-1,1.5
		c-0.7,0.4-1,1-1.2,1.8C78.6,57.2,79.6,59.3,78.9,61.3z"/>
	<path class="st31" d="M29.2,112.6c0,5.6-0.1,11.2,0.1,16.8c0.2,7.1,1.3,14.2,3.3,21.2c0.2,0.8,0.3,1.9,1.5,2
		c-1,0.8-0.6,1.7-0.3,2.7c1,3,2.5,5.8,4.1,8.5c-4.5,1-9.8-1.6-11.6-5.6c-4.7-10.6-5.3-21.8-4.1-33.3c0.2-1.7,0.4-3.4,0.6-5.2
		c0.2-3,2.3-4.4,4.5-5.6C28.1,113.6,28.6,113.1,29.2,112.6z"/>
	<path class="st30" d="M96,93.4c-6.3,5.1-13.4,8-21.5,8.3c-1.5,0.1-3,0-4.6-0.1c-1.6-2.1-0.3-4.1-0.2-6.3c1.6-1.9,3-3.9,5.3-5.3
		c2.1-1.3,3.1-3.6,4.3-5.8c0.3-0.5,0.7-1,1.3-1.1c0.8,0,1.2-0.5,1.7-1.1c1.5-1.6,2.9-1.2,4.3,0.5c2,2.2,4,4.7,7.6,4.4
		c1.9-0.1,3.2,2,2.6,3.9C96.7,91.7,95.8,92.3,96,93.4z"/>
	<path class="st28" d="M45.8,99.1c-6.3-2.1-10.4-7-14.6-11.5c-1.6-1.6-1.3-3.9-1.5-6c0.2-1.1,0.9-2.1,2-1.9c3.4,0.5,6-0.8,8.5-2.9
		c0.6-0.5,1.9-0.7,2.7,0.3c-0.3,1.1,0.1,2.1,0.6,3.1c1.4,0.8,1.6,2.3,2,3.6c1,2.3,1.5,4.8,2.7,7.1c0.5,0.9,1,1.9,0.3,2.9
		C45.9,94.8,47.2,97.6,45.8,99.1z"/>
	<path class="st27" d="M71.4,141.9c-0.1,4.3,2.3,8.3,0.8,12.6c-0.3,1.1,0.5,1.6,1.6,1.6c1.4,0,2.8,0.1,4.3,0.1
		c-1.9,0.8-4,0.1-6.2,0.6c0.4,1,0.9,2,1.3,3c-2.5,0.8-4.9,2.2-7.8,1.9c-0.3-3.4-1.5-6.5-4.5-8.5c-0.3-1.6-1.1-3-1.7-4.5
		c-0.5-1-0.8-2.1-0.1-3.2C63,143.7,66.8,141.5,71.4,141.9z"/>
	<path class="st17" d="M65.5,161.6c2.5-1,4.9-2.3,7.8-1.9c0.4,3.5,1,7.1,1.2,10.6c0.2,4.3,1.4,7.6,6,8.7c0.4,0.1,0.8,0.3,1.1,0.5
		c0.1,0.1,0.1,0.3,0.3,0.8c-4.1,0-8.2,0-12.2,0c-1,0-1.6-0.3-1.1-1.4c0.8-1.8,0-3.4-0.5-5.1C67,169.9,64.9,166.1,65.5,161.6z"/>
	<path class="st17" d="M51.9,161.6c1.4,3,0.1,5.8-0.5,8.6c-0.6,3-2.1,5.8-0.8,9c0.6,1.6-0.8,1.2-1.6,1.2c-3.8,0-7.7,0-12,0
		c1.3-1.4,2.7-1.9,4.1-2.3c2.3-0.8,3-2.4,3-4.6c-0.1-4.5-0.6-9.1,0-13.7C47,158.5,49.4,159,51.9,161.6z"/>
	<path class="st32" d="M95.3,155.7c0.1-0.9,0.3-1.9,1.1-2.3c2.2-1.4-1.1-0.6-0.5-1.3c4.6-1.2,4.5-4.9,4.7-8.5c0-0.3,0.1-0.5,0.3-0.8
		c1.3-2.1,2.3-4.2,2.4-6.7c0.1-0.9-0.3-1.9,0.6-2.5c1.4,8.3,1.4,16.6-0.8,24.8c-1.3,5-5.3,8.5-10.8,9.1
		C93.5,163.4,95.3,159.7,95.3,155.7z"/>
	<path class="st26" d="M51.9,161.6c-2.5-1-4.9-2.3-7.8-1.8c2.1-3.2,1.2-6.5,0.4-9.8c0.1-3.1,0.1-6.1,0.2-9.2c1-0.8,1.9-0.1,2.8,0.3
		c3,1.3,6.1,2.4,8.9,4.2c1.2,2.6-0.6,4.2-2.1,5.9C53.4,154.7,52.1,158,51.9,161.6z"/>
	<path class="st12" d="M17.1,88c-2.7,0.6-5.4,1.2-8.2,1.9c-4.1-0.8-4.1-0.8-3.8-5.5c0.1-1.2-0.2-2.3-0.1-3.6C5.3,78,6,77.4,8.6,78
		c3.7,0.9,3.7,0.9,4.1-2.9c0.1-1.2,0.4-2.2,1.2-3.1c0.5-0.5,1.1-1,1.9-0.7c0.8,0.3,0.8,1,0.6,1.5C14.6,78,18.5,82.8,17.1,88z"/>
	<path class="st36" d="M44.6,80.2c6.3,4.1,13.1,5,20.4,3.7c6.7-1.2,13.5-5.9,12.7-13c-0.1-0.3,0.3-0.8,0.5-1.1
		c0.5,2.4,0.9,4.8,1.4,7.2c0.6,3.1-0.5,5.4-3.2,7.2c-9.4,6.4-19.5,6-28.4,1C46.1,84.3,44,83.1,44.6,80.2z"/>
	<path class="st8" d="M44.6,80.2c1,4.3,4.9,5.3,8.1,6.5c3.2,1.2,6.9,1.6,10.4,1.5c5.6-0.1,10-3,14.4-5.9c1.8-1.2,1.5-3.4,1.9-5.2
		c0.4,2.1,0.8,4.1,1.2,6.1c-0.2,0.3-0.5,0.7-0.7,1.1c-6.3,7-14.4,9.3-23.4,8.2c-5.4-0.7-9.1-4.1-11.9-8.7c-0.4-1.2-0.8-2.5-1.3-3.7
		C43.7,80.2,44.2,80.2,44.6,80.2z"/>
	<path class="st39" d="M54.3,151.3c0.4-1.9,1.8-3.4,1.8-5.4c1-1.1,2-1,3-0.1c-0.1,2,1.2,3.4,1.9,5.1c0.3,0.9,0.9,1.6-0.1,2.3
		C58.7,152.8,56.7,151.3,54.3,151.3z"/>
	<path class="st11" d="M69,26.9c-2,0.1-4.1,0.1-6,0.1c-1.5,0-3.2,0.2-4.1-1.4c-0.6-1.2-0.1-2.1,0.7-3c1.4-1.4,2.9-1.2,4.4-0.3
		c0.8,0.1,1.2,0.9,0.8,1.2c-1.9,1.3,0,1.6,0.5,2.3C66.4,26.9,68.1,25.8,69,26.9z"/>
	<path class="st4" d="M45.2,50.9c-0.1,0.6-0.1,1.2-0.3,1.9c-1.2,1.7-3,3.4-0.4,5.4c0.4,0.6,0.8,1.3,1.2,1.9c1.5,1.4-0.3,2-0.7,3
		c0.3-1.5-1-2-1.9-2.8c-2.7-2.7-3-6-0.8-8.7C43.2,50.6,44,50,45.2,50.9z"/>
	<path class="st25" d="M65.4,25.9c-2.1-0.2-2.1-0.2-3.4-1.5c-0.3-1.9,3.8,1.6,2-2c0.2-0.5,0.5-1,0.7-1.4c1.6,0.1,2.3,1.4,2.5,2.7
		C67.5,24.9,66.5,25.5,65.4,25.9z"/>
	<path class="st35" d="M60.3,71.1c-2.9-0.5-6-0.5-7.7-3.8c-0.4-0.8-1.4-1.5-2.1-2.1c-0.6-0.5-2.1-0.5-1-1.8c0.8-0.8,1.2-1.9,3-1.1
		c5.2,2.3,10.5,2.3,15.5-0.9c0.6-0.4,1.1-1,1.9-0.3c0.5,0.5,1.4,1,0.8,1.7c-2.5,2.9-3.9,6.8-8,8C61.9,71,61.1,71,60.3,71.1z"/>
	<path class="st33" d="M53.5,58.7c2.8,0.1,4.8,0.3,6.8-0.3c1.4-0.3,3-0.1,2.1-2.4c-0.1-0.2,0.2-0.8,0.5-1c0.5-0.3,1,0.1,1.2,0.5
		c1.3,1.5,0.6,4.1-1.4,4.3c-2.6,0.3-5.2,1.1-7.9,0.8c-1.1-0.1-2.1-0.2-2.3-1.4c-0.3-1.2-0.1-2.5,1.1-3c3.8-1.2,4.1-4.5,5-7.6
		c0.2-0.8,0.5-1.6,1.4-1.2c0.7,0.3,0.2,1,0.1,1.6c-0.3,2-1.7,4-0.1,6.1c0.7,1-0.5,1-1.2,1C57,56.3,55.6,57.2,53.5,58.7z"/>
	<path class="st19" d="M50.8,40.3c2.5-0.3,4,2.4,6.5,2.4c0.1,0,0.3,0.7,0.8,0.5c1-0.4,2.2-1,2.3,0.7c0.1,1.6-1.4,1.4-2.5,1.4
		c-0.3,0-0.6,0.1-0.9,0.1c-1.9,0.7-3.8,0.2-5.6-0.1c-1.4-0.3-2.3-1.3-2.3-2.7C48.8,41.3,49.2,40.3,50.8,40.3z"/>
	<path class="st21" d="M69,46.4c-1.2-0.7-2.5-0.3-3.8-0.6c-1.2-0.2-2-0.6-1.6-1.9c0.4-1.2,1.1-0.4,1.9-0.4c1.4,0.1,2.9-0.1,4.2-0.6
		c1.4-0.5,2.8-1.4,4.2-0.1c0.7,0.6,0.8,1.4,0.4,2.2c-0.8,1.9-2.4,1.5-3.9,1.3c-0.3-0.1-0.8,0.1-1.2,0.2L69,46.4z"/>
	<path class="st20" d="M56.7,46.1c0.7,1.1,1.8,2.1,0.5,3.4c-1.1,1.2-2.4,2.2-4,1.6c-1.8-0.5-3.2-1.9-3-4.1c0-2.1,1.4-2.1,2.9-2.2
		C54.4,45,55.6,45.3,56.7,46.1z"/>
	<path class="st37" d="M56.7,46.1c-2.3-0.3-4.8-1.9-6.5,1.1c-0.7-1-1.5-1.9-2.8-1.8c-0.2-1.8,0.5-3.4,1.2-5c1.7-4.3,5.1-5.2,8.9-2.4
		c-1.1,0.4-2.1-0.1-3.1-0.5c-1.8-0.7-2.5,0.1-2.4,2.1c0,0.2-0.8,0.5-1.2,0.8c-1,0.7-1.7,1.5-1.3,2.7c0.5,1.4,1.6,1.7,2.9,1.7
		c1.5,0,3,0.1,4.5,0.6C56.8,45.6,56.7,45.9,56.7,46.1z"/>
	<path class="st18" d="M69.2,46.6c1.4,1,3.5,1.6,2.3,4.1c-1,1.8-4,2.3-5.6,1.1c-1.1-0.8-1.9-1.9-1.6-3.4c0.4-1.5,1.6-1.9,3.2-1.8
		c0.5,0,1-0.1,1.5-0.1C69,46.4,69.2,46.6,69.2,46.6z"/>
	<path class="st29" d="M78.9,61.3c0.1-2.1-0.3-4.1,0.5-6.2c0,1.6,0,3.2,0,5.1c0.8-0.6,0.5-1.1,0.6-1.6c0.1-0.8-0.3-1.7,0.8-2.1
		c0.5-0.2,1,0.1,1.3,0.5c0.5,0.8,1.4,1.7,0.7,2.7C81.9,61.2,80.8,62.6,78.9,61.3z"/>
	<path class="st40" d="M60,75.4c-1.2,0-2.2,0.1-2.9-0.6c-0.3-0.3-0.5-0.7-0.5-1c0.1-0.6,0.6-0.8,1.2-0.6c1,0.3,1.9,0.5,3,0.2
		c0.8-0.2,1.7-0.9,2,0.3c0.3,1.2-1,1.3-1.8,1.6C60.5,75.4,60.1,75.4,60,75.4z"/>
	<path class="st27" d="M45.3,131.1c-1.4-0.8-2-1.6-1.3-3.4c1.4-3.8,0.1-8-3.4-9.7c-3.6-1.7-6.5-3.9-8.9-6.9
		c-0.2-0.3-0.8-0.3-1.1-0.4c0.8-1.2,0.5-2.6-0.5-3.2c-1-0.5-1.2,1.1-1.8,1.6c-1,0.9-1.8,2.8-3.2,2.5c-1.5-0.4-1.4-2.5-1.8-3.9
		c-0.5-2.2-0.9-4.5-1.3-6.8c1.4,0.1,1.1,1.2,1.5,1.8c1,1.4,2.2,2.5,4,1c1.1-1,1.6-0.7,2.3,0.5c3.5,5.5,13,6,17.1,3.6
		c1.8,2.1,1.5,4.7,1.6,7.1c0.1,2.6,1.2,3.6,3.6,4.5c4.5,1.8,8.9,1.3,13.3-0.3c1.6-0.5,2.3-1.4,2.4-3c0.1-1.3,0.1-2.7,1.4-3.5
		c1.4-1.2,2.7,0.1,4,0.4c8,1.9,10.7,1.2,16.8-4.9c0.5,1.1-0.1,2-0.4,2.8c-1.9,4.1-0.8,8.2,3,11.1c0.6,0.5,1.3,1.1,2.1,1.3
		c3.7,0.9,3.1,3,1.8,5.5c-1.6,3.1-3.4,6-3.5,10.3c-1.8-3.9-1.3-10,0.7-12.6c-1.4-0.6-2.7-1.2-4.1-1.7c-2.3-1.5-4.2-3.6-5.4-6
		c-0.8-1.4-1.3-1.6-2.5-0.8c-2.3,1.6-5.7,1.8-6.8,5.3c-0.4,1.4-0.5,2.7-0.5,4.1c-0.1,2.2-0.3,4.3-1.8,6c-2.8,1.3-5.8,1.4-8.5-0.1
		c-3.4-2.1-6.9-1.8-10.5-1c-1.5,0.3-3,0.8-4.5,0.4C47.5,132.6,46.2,132.2,45.3,131.1z"/>
	<path class="st5" d="M69,112.7c-0.1,0.3-0.1,0.6-0.2,0.9c-0.8,1.9,0.8,4.9-1.2,5.6c-3.8,1.4-7.6,3.2-12,2.3c-5.5-1-9.1-3-8.3-9.4
		c0.2-1.4-0.3-2.8-0.4-4.3c-0.4-2.9-1.1-5.7-1-8.7c0-1,0.1-2,0-3c-0.3-2,0.5-2.7,2.4-2.5c1.2-1,2.7-0.9,4.1-0.9
		c4.9,0.1,9.8,0,14.6,0.1c1.4,0,3.5-0.5,3.4,2.1c-0.1,2.3-0.3,4.5-0.4,6.7C69.5,105.3,68.9,109,69,112.7z"/>
	<path class="st13" d="M100.9,142.7c1.2,2.6-0.3,5.1-0.2,7.7c0.1,0.7-0.6,1.5-1.3,1.2c-1.3-0.5-2.3,0.5-3.5,0.4
		c-1.6-0.2-3.2-0.6-4.8-0.6c-1,0-1.4-0.3-1.9-1c-3.9-4.6-2.3-4.5,1.4-9.5C94.1,140.8,97.4,142.3,100.9,142.7z"/>
	<path class="st15" d="M59.2,145.8c-1,0-2,0.1-3,0.1c-3.8-1.7-7.6-3.4-11.5-5.1c-0.3-1.7,1.1-3.2,0.5-4.9c1.3-1,2.5-0.1,3.8,0.1
		c1,0.3,2.2,0.5,3.1,1.2c3,1.9,6.1,1.9,9.3,1c2.3-0.6,4.5-1,6.8-1.5c1.1-0.2,2.2-0.5,3.2,0.3c0,1.6-0.1,3.2-0.1,4.9
		C67.3,143.2,63.3,144.5,59.2,145.8z"/>
	<path class="st6" d="M71.4,137.1c-3.4,0.8-6.9,1-10.4,2.1c-3,1-6,0.9-8.7-1c-1.2-0.8-2.7-0.9-3.8-1.6c-0.1-0.8-0.9-0.6-1.4-0.8
		c-1.3-0.7-2.1-1.6-1.6-3s1.8-0.8,2.7-0.5c3.5,0.6,6.5-2,10-1.3c1.1,0.2,2.5-0.1,3.2,0.5c3.2,3,7,1.8,10.6,2.2
		C72,134.7,72.2,136,71.4,137.1z"/>
	<path class="st9" d="M48.4,132.2c-0.9,0.2-2.3-0.4-2.5,1c-0.2,1.9,1.6,2.2,2.9,2.8c0.1,0,0.1,0.1,0.1,0.2c-0.1,0.1-0.3,0.3-0.4,0.4
		c-1.1-0.3-2.2-0.5-3.2-0.8c-0.3-1.6-0.1-3.2,0-4.8C46.4,131.4,47.5,131.6,48.4,132.2z"/>
	<path class="st7" d="M44.6,58.2c-1.1-0.2-2.6-0.5-2.3-1.8c0.3-1.4,0.7-3.3,2.7-3.6C44.8,54.5,44.7,56.4,44.6,58.2z"/>
	<path class="st38" d="M70.3,94.9c-0.2-1.8-1.6-1.2-2.6-1.2c-6.5-0.1-13-0.1-19.5-0.1c-1.1-3.2-3-6.2-3.6-9.7
		c2.9,2.3,4.9,5.6,8.7,6.9c6.7,2.3,13.1,1.6,19.2-1.7c2.5-1.4,4.9-3.1,7.4-4.7C78.6,89.4,74,91.8,70.3,94.9z"/>
	<path class="st23" d="M66.9,64.6c-4.3,6.1-9.7,6.3-13.9,0.5C57.7,65.5,62,65.4,66.9,64.6z"/>
	<path class="st10" d="M56,48.4c-0.1,0.8-0.7,1.3-1.6,1.3c-0.5,0-1.2-0.5-1-0.8c0.3-0.6,0.6-1.5,1.5-1.6C55.8,47.1,56,47.6,56,48.4z
		"/>
	<path class="st24" d="M68.1,51c-0.7,0-1.3-0.4-1.2-0.8c0.3-0.8,0.5-1.9,1.5-2c0.6-0.1,1.1,0.6,1.1,1.2C69.5,50.4,68.9,50.8,68.1,51
		z"/>
	<path class="st22" d="M57.2,99.3c1.4-0.5,0-3,1.9-3c2.6-0.1,5.3-0.1,7.9,0.1c1,0.1,0.8,1.3,0.7,2.1c-0.4,5.6-0.8,11.1-1.4,16.7
		c-0.3,2.5-4.9,4.9-7.4,4.3c-1.7-0.5-0.4-2.6-1.9-3.2c-1.5-4.1-0.4-8.4-0.7-12.6C56.4,102.2,56.3,100.6,57.2,99.3z"/>
	<path class="st3" d="M57.2,99.3c0,5.6-0.1,11.3-0.1,17c-2.1-0.5-4.1-1.1-6.2-1.6c-1.2-0.3-1.6-1-1.3-2c0.3-1.3,1.4-0.8,2-0.5
		c2.4,1,3,0.2,2.8-2.2c-0.2-2.7,0.1-5.5-0.1-8.2C54.2,99.3,54.9,98.6,57.2,99.3z"/>
	<path class="st34" d="M59.1,104.1c0-0.1,0-0.2,0-0.3c0.3-1.6-0.8-3.8,0.6-4.5c1.7-0.8,4-0.2,6-0.2c0.8,0,0.9,0.5,0.9,1.2
		c-0.1,1.2-0.8,1.2-1.7,1.2c-1.4,0.1-3.4-0.9-3.3,2.1c0.1,2.1,0.1,3.5,2.7,2.5c1.2-0.5,1.6,0.1,1.6,1.3c-0.2,2.1-0.3,4.1-0.5,6.1
		c-0.1,0.9-5.5,3.1-6,2.4c-0.6-0.9-0.8-1.9,0.5-2.5c0.6-0.3,1.4-0.4,2.1-0.6c1.7-0.5,1.3-2,1.3-3c0-1.6-1.4-0.8-2.1-0.6
		c-1.9,0.5-2.3-0.3-2.2-2C59.1,106.2,59.1,105.2,59.1,104.1z"/>
</g>
</svg>
