<?xml version="1.0" encoding="utf-8"?>
<!-- Generator: Adobe Illustrator 16.0.0, SVG Export Plug-In . SVG Version: 6.00 Build 0)  -->
<!DOCTYPE svg PUBLIC "-//W3C//DTD SVG 1.1//EN" "http://www.w3.org/Graphics/SVG/1.1/DTD/svg11.dtd">
<svg version="1.1"
	 id="svg3019" xmlns:dc="http://purl.org/dc/elements/1.1/" xmlns:cc="http://creativecommons.org/ns#" xmlns:rdf="http://www.w3.org/1999/02/22-rdf-syntax-ns#" xmlns:svg="http://www.w3.org/2000/svg" xmlns:sodipodi="http://sodipodi.sourceforge.net/DTD/sodipodi-0.dtd" xmlns:inkscape="http://www.inkscape.org/namespaces/inkscape" sodipodi:docname="starburst-explosion-2.vector.svg" inkscape:version="0.48.3.1 r9886"
	 xmlns="http://www.w3.org/2000/svg" xmlns:xlink="http://www.w3.org/1999/xlink" x="0px" y="0px" width="400px" height="400px"
	 viewBox="320.5 338.5 200 210" style="enable-background:new 304.5 334.5 220 210;" xml:space="preserve">
<style type="text/css">
<![CDATA[

	.st0{fill:#FF0000;}
	.st1{fill:#FF6600;}
	.st2{fill:#FFFF00;}
	.st3{fill:#FFFFFF;}
]]>
</style>
<sodipodi:namedview  showgrid="false" inkscape:cy="405.38144" inkscape:cx="502.45503" inkscape:zoom="0.84852814" borderopacity="1.0" bordercolor="#666666" pagecolor="#ffffff" id="base" inkscape:window-maximized="1" inkscape:window-y="24" inkscape:document-units="px" inkscape:current-layer="layer1" inkscape:pageopacity="0.0" inkscape:window-x="67" inkscape:window-height="1056" inkscape:window-width="1853" inkscape:pageshadow="2">
	<inkscape:grid  type="xygrid" id="grid3027"></inkscape:grid>
</sodipodi:namedview>
<g id="layer1" inkscape:label="Layer 1" inkscape:groupmode="layer">
	<g id="g4317" transform="matrix(0.40646552,0,0,0.40646552,1710.1045,363.42343)">
		<path id="path4023" inkscape:connector-curvature="0" class="st0" d="M-3137.564-65.001l-52.104,130.88l-19.009-52.753
			l-4.957,91.781l-59.942-71.106l23.391,57.272l-119.463-67.253l86.637,116.119l-68.024-7.126l88.071,48.126l-106.638,8.719
			l72.98,19.591l-151.376,83.302l187.254-40.267l-50.884,73.146l78.074-55.588l-40.971,82.687l48.14-54.437l-4.978,140.19
			l57.308-120.27l27.471,55.821l-10.079-82.209l62.676,64.271l-26.246-66.604l160.604,91.622l-97.105-121.757l33.365,7.292
			l-63.454-56.321l76.555-11.458l-58.729-9.877l139.861-88.917l-168.963,24.737l35.323-50.773l-64.576,42.953l-0.23-4.137
			l44.118-111.042l-46.893,61.66L-3137.564-65.001L-3137.564-65.001z"/>
		<path id="path4023-1" inkscape:connector-curvature="0" class="st1" d="M-3144.527-26.422l-44.265,111.191l-16.147-44.818
			l-4.212,77.973l-50.922-60.408l19.869,48.654l-101.489-57.133l73.603,98.649l-57.792-6.054l74.823,40.885l-90.596,7.41
			l62.001,16.643l-128.602,70.77l159.083-34.21l-43.229,62.142l66.328-47.227l-34.806,70.249l40.899-46.247l-4.231,119.1
			l48.686-102.176l23.341,47.422l-8.565-69.84l53.248,54.601l-22.298-56.583l136.444,77.838l-82.497-103.44l28.346,6.194
			l-53.909-47.85l65.04-9.73l-49.894-8.392l118.822-75.542l-143.546,21.018l30.01-43.136l-54.863,36.49l-0.197-3.513l37.482-94.339
			l-39.839,52.386L-3144.527-26.422L-3144.527-26.422z"/>
		<path id="path4023-1-4" inkscape:connector-curvature="0" class="st2" d="M-3151.485,12.864l-36.425,91.499l-13.289-36.879
			l-3.467,64.163l-41.906-49.709l16.352,40.039l-83.518-47.016l60.569,81.18l-47.556-4.983l61.573,33.646l-74.554,6.095
			l51.023,13.697l-105.831,58.236l130.914-28.151l-35.575,51.139l54.582-38.864l-28.641,57.808l33.655-38.057l-3.481,98.008
			l40.065-84.083l19.206,39.025l-7.047-57.472l43.821,44.93l-18.351-46.562l112.281,64.055l-67.887-85.123l23.327,5.096
			l-44.364-39.373l53.522-8.01l-41.057-6.905l97.777-62.164l-118.125,17.294l24.696-35.496l-45.147,30.027l-0.161-2.89
			l30.842-77.632l-32.783,43.109l-5.038-89.678H-3151.485z"/>
		<path id="path4023-1-4-9" inkscape:connector-curvature="0" class="st3" d="M-3161.472,63.578l-26.222,65.869l-9.567-26.551
			l-2.496,46.189l-30.164-35.784l11.77,28.824l-60.119-33.847l43.599,58.438l-34.232-3.585l44.323,24.218l-53.668,4.389l36.73,9.86
			l-76.183,41.92l94.238-20.263l-25.609,36.81l39.292-27.976l-20.619,41.615l24.228-27.396l-2.506,70.551l28.841-60.526
			l13.827,28.091l-5.074-41.372l31.543,32.346l-13.207-33.521l80.825,46.11l-48.868-61.275l16.792,3.669l-31.935-28.343
			l38.528-5.766l-29.556-4.971l70.385-44.748l-85.032,12.448l17.777-25.551l-32.5,21.616l-0.115-2.081l22.202-55.884l-23.598,31.032
			L-3161.472,63.578z"/>
	</g>
</g>
</svg>
