<?xml version="1.0" encoding="utf-8"?>
<!-- Generator: Adobe Illustrator 16.0.0, SVG Export Plug-In . SVG Version: 6.00 Build 0)  -->
<!DOCTYPE svg PUBLIC "-//W3C//DTD SVG 1.1//EN" "http://www.w3.org/Graphics/SVG/1.1/DTD/svg11.dtd">
<svg version="1.1" id="Ebene_1" xmlns="http://www.w3.org/2000/svg" xmlns:xlink="http://www.w3.org/1999/xlink" x="0px" y="0px"
	 width="1053px" height="1055px" viewBox="0 0 1053 1055" style="enable-background:new 0 0 1053 1055;" xml:space="preserve">
<style type="text/css">
<![CDATA[
	.st0{fill-rule:evenodd;clip-rule:evenodd;fill:#EFDA4F;}
	.st1{fill-rule:evenodd;clip-rule:evenodd;fill:#FDFBF0;}
	.st2{fill-rule:evenodd;clip-rule:evenodd;fill:#323330;}
]]>
</style>
<g>
	<path class="st0" d="M1053,1054c-348.8,0-697.7,0-1046.5,0.1c-3.7,0-4.6-0.8-4.6-4.6C2,700.7,2,351.8,2,3c2.5,0,5,0,7.5,0
		c345.1,0,690.2,0,1035.3,0c1.7,0,3.3,0.1,5,0c2.3-0.1,3.4,0.8,3.2,3.2c-0.1,1.7,0,3.3,0,5c0,344.9,0,689.9,0,1034.8
		C1053,1048.7,1053,1051.3,1053,1054z M806.2,970.7c24.1-0.2,47.9-3,70.8-10.7c32.5-11,59.2-29.4,76.6-59.7
		c13.8-24.1,17.6-50.3,16.3-77.6c-1.9-39.9-17.5-73-48.8-98.4c-21.4-17.4-45.7-29.8-70.6-41.1c-19.5-8.9-39.7-16.4-58.8-26.1
		c-9.7-4.9-18.9-10.4-26.6-18.3c-16.9-17.1-18-58.3,16.3-69.8c23.6-8,45.7-3.9,64.5,13.5c6.9,6.4,12.2,14.1,16.8,22.2
		c1.3,2.2,2.2,2.7,4.6,1.2c23.8-15.4,47.6-30.7,71.4-45.9c2-1.3,2.3-2.3,1.1-4.3c-15.3-25.9-34.6-47.9-62.4-60.7
		c-40.4-18.7-82.4-20.1-124.9-9c-34.5,9-61.7,28.6-79.6,59.9c-13.8,23.9-17.7,49.9-15.9,77.1c2.4,35.4,15.6,65.8,42,90
		c21.2,19.4,46.2,32.5,72.2,43.9c20.3,8.9,40.8,17,60.6,27c9.8,5,19.4,10.4,27.1,18.5c11.5,11.9,14.8,26.3,11.4,42
		c-3.7,16.6-15.1,27.2-30.5,32.4c-36.3,12.4-70.6,8-101.3-16c-11.7-9.1-20.7-20.8-28.5-33.3c-1.9-3-3.2-4-6.9-1.9
		c-24.1,14.2-48.3,28.2-72.6,42.1c-3,1.7-3.4,3-1.7,6.1c14.6,26.9,34.6,48.9,60.4,65.4C724.9,961.9,764.5,970.3,806.2,970.7z
		 M573,664.4c0.1,0,0.2,0,0.4,0c0-58,0-116,0.1-174c0-4.4-1-5.5-5.5-5.5c-29,0.2-58,0.2-87,0c-4.9,0-6.3,1-6.3,6.2
		c0.2,109,0.1,218,0.1,326.9c0,8.3-0.4,16.7-1.9,24.9c-2.7,14.6-8.2,27.8-22.8,34.3c-18.9,8.5-51.8,9.9-71.6-14.7
		c-6.9-8.6-12.8-17.8-18.2-27.5c-1.5-2.7-2.6-2.9-5.2-1.3c-24.4,14.9-49,29.7-73.5,44.5c-2.5,1.5-3.5,2.7-1.9,5.8
		c16.4,32.5,40.1,57.5,73.7,72.3c36.7,16.1,74.9,17.8,113.6,10.4c30.9-5.9,57.5-19.7,77.2-45.1c19.4-25.1,27.9-54.3,28.5-85.3
		C573.6,779,573,721.7,573,664.4z"/>
	<path class="st1" d="M1053,1054c0-2.7,0-5.3,0-8c0-344.9,0-689.9,0-1034.8c0-1.7-0.1-3.3,0-5c0.1-2.4-0.9-3.3-3.2-3.2
		c-1.7,0.1-3.3,0-5,0C699.7,3,354.6,3,9.5,3C7,3,4.5,3,2,3c0.2-0.3-0.5-1,0.5-1c1.3,0,2.7,0,4,0c347.6,0,695.2,0,1042.8-0.1
		c4.1,0,4.9,0.8,4.9,4.9c-0.1,347.6-0.1,695.2-0.2,1042.8C1053.9,1051,1055.1,1052.9,1053,1054z"/>
	<path class="st2" d="M806.3,970.7c-41.7-0.4-81.3-8.8-117-31.6c-25.8-16.5-45.7-38.5-60.4-65.4c-1.6-3-1.3-4.3,1.7-6.1
		c24.3-13.9,48.5-27.8,72.6-42.1c3.6-2.1,4.9-1.2,6.9,1.9c7.8,12.5,16.8,24.1,28.5,33.3c30.7,24.1,64.9,28.5,101.3,16
		c15.4-5.2,26.8-15.8,30.5-32.4c3.5-15.8,0.1-30.1-11.4-42c-7.7-8-17.3-13.5-27.1-18.5c-19.8-10-40.4-18.1-60.6-27
		c-26-11.4-51-24.5-72.2-43.9c-26.4-24.2-39.6-54.6-42-90c-1.8-27.2,2.1-53.2,15.9-77.1c18-31.3,45.2-50.9,79.6-59.9
		c42.5-11.1,84.5-9.7,124.9,9c27.8,12.8,47.1,34.8,62.4,60.7c1.2,2.1,0.9,3.1-1.1,4.3c-23.9,15.2-47.7,30.5-71.4,45.9
		c-2.3,1.5-3.3,1-4.6-1.2c-4.7-8.1-9.9-15.8-16.8-22.2c-18.8-17.4-40.9-21.5-64.5-13.5c-34.3,11.6-33.2,52.7-16.3,69.8
		c7.7,7.8,17,13.4,26.6,18.3c19.2,9.7,39.3,17.3,58.8,26.1c24.9,11.3,49.2,23.7,70.6,41.1c31.3,25.4,46.9,58.4,48.8,98.4
		c1.3,27.3-2.6,53.5-16.3,77.6c-17.3,30.3-44.1,48.7-76.6,59.7C854.1,967.7,830.4,970.5,806.3,970.7z"/>
	<path class="st2" d="M573,664.4c0,57.3,0.7,114.7-0.3,172c-0.5,31-9,60.2-28.5,85.3c-19.6,25.4-46.3,39.2-77.2,45.1
		c-38.7,7.4-77,5.7-113.6-10.4c-33.6-14.8-57.3-39.8-73.7-72.3c-1.5-3.1-0.6-4.3,1.9-5.8c24.5-14.7,49.1-29.5,73.5-44.5
		c2.6-1.6,3.7-1.4,5.2,1.3c5.3,9.6,11.2,18.9,18.2,27.5c19.8,24.5,52.7,23.1,71.6,14.7c14.6-6.5,20-19.7,22.8-34.3
		c1.5-8.2,1.9-16.5,1.9-24.9c0-109,0-218-0.1-326.9c0-5.2,1.4-6.2,6.3-6.2c29,0.2,58,0.2,87,0c4.5,0,5.5,1.2,5.5,5.5
		c-0.2,58-0.1,116-0.1,174C573.2,664.4,573.1,664.4,573,664.4z"/>
</g>
</svg>
